<svg width="63" height="67" viewBox="0 0 63 67" fill="none" xmlns="http://www.w3.org/2000/svg">
<path d="M27.386 0.077303C28.1459 0.396027 29.3666 0.170771 30.19 0.170771C29.4301 -0.148047 28.2095 0.077303 27.386 0.077303ZM26.8252 0.170771C26.9663 0.234609 27.0411 0.247975 27.1991 0.264238C27.0579 0.2004 26.9832 0.187034 26.8252 0.170771Z" fill="#D9E3DF"/>
<path d="M27.1982 0.170868C27.5188 0.305462 27.8806 0.264336 28.2264 0.264336C27.9058 0.129743 27.5441 0.170868 27.1982 0.170868Z" fill="#A7BDB4"/>
<path d="M5.70154 46.4371C6.24271 46.328 6.60443 45.9227 7.01008 45.5696C7.85596 44.8335 8.64763 44.0528 9.44024 43.2592C12.5686 40.1257 13.822 36.0551 14.7567 31.8562C14.9997 30.7675 15.1745 29.68 15.3717 28.5848C15.4951 27.9017 15.6885 27.2258 15.7026 26.5285H15.8895C15.8895 28.5801 16.0699 30.6387 15.9792 32.6974C15.8559 35.5058 15.4268 38.2687 14.4866 40.9226C13.8594 42.6897 12.906 44.3165 12.0592 45.9778C11.8554 46.3786 11.6367 46.7781 11.4133 47.1691C11.3199 47.3339 11.1488 47.5234 11.2002 47.7294C11.2544 47.946 11.5031 48.0376 11.6835 48.1191C12.1854 48.3454 12.6864 48.5585 13.1789 48.8054C14.3071 49.3715 15.5446 49.7191 16.7223 50.1568C17.8075 50.5602 19.0319 51.1815 20.189 51.2975V66.0653H22.4322V56.1578V53.0733C22.4322 52.6146 22.3369 52.0317 22.4621 51.588C22.5678 51.2124 22.9519 51.2202 23.2734 51.1776C24.0819 51.0708 24.8932 51.0189 25.7036 50.9283C25.9952 50.8956 26.4336 50.7614 26.6757 50.9933C26.9187 51.2267 26.8252 51.7424 26.8252 52.0452V54.8492V66.0653H28.975V54.8492V51.7648C28.975 51.3865 28.8712 50.8147 29.0712 50.4762C29.2563 50.1622 29.6937 50.0359 30.0031 49.8853C30.6434 49.5735 31.2556 49.1964 31.8725 48.8407C33.6614 47.8086 35.3317 46.5463 36.8253 45.1203C40.4584 41.6502 42.739 36.5601 43.0802 31.5758C43.239 29.2515 42.953 26.7561 42.5278 24.4723C43.497 25.8302 44.1812 27.4474 45.0168 28.892C45.2935 29.3709 45.4907 30.1383 45.929 30.4913C46.1291 30.6521 46.3973 30.6439 46.6403 30.6397C47.2553 30.6289 47.9003 30.5511 48.5097 30.4663C50.1024 30.245 51.8343 30.3275 53.37 30.8378C55.6983 31.6113 57.8013 33.2833 59.5473 34.9569C60.4651 35.8364 61.3035 36.9188 62.3429 37.6512C62.1905 36.6169 61.6858 35.6443 61.3577 34.6602C59.1622 28.0806 53.8467 22.8549 47.2946 20.5692C45.3103 19.8771 43.1633 19.5567 41.1257 19.0544C39.5368 18.6628 37.8394 18.1913 36.5458 17.138C34.5325 15.4987 32.866 11.7115 35.5177 9.85851C36.2598 9.34004 37.2693 9.24312 38.1348 9.11563C39.033 8.98318 39.9368 8.84139 40.8453 8.7697C40.7294 8.16637 40.335 7.61491 40.0312 7.08729C39.6695 6.46106 39.3424 5.82594 38.9489 5.21794C38.4385 4.43122 37.9067 3.64021 37.2085 3.00509C35.1709 1.1521 32.4903 0.439968 29.8162 0.255837C24.4306 -0.115042 19.1618 2.09032 14.7679 5.06325C11.8713 7.02298 9.29443 9.64447 7.17552 12.4149C6.10065 13.82 5.15195 15.2687 4.24064 16.7812C3.64618 17.7687 3.01154 18.7334 2.55541 19.7989C0.0392679 25.6766 -0.624352 32.209 1.13003 38.3989C2.00396 41.4839 4.04903 43.7829 5.70154 46.4371Z" fill="#93AFA3"/>
<path d="M29.4414 0.170725C29.6854 0.273352 29.9237 0.263538 30.1891 0.264192C29.9452 0.161565 29.7069 0.171379 29.4414 0.170725Z" fill="#A7BDB4"/>
<path d="M30.1895 0.170719C30.3549 0.24353 30.4736 0.255962 30.6568 0.264187C30.4914 0.191375 30.3726 0.178944 30.1895 0.170719Z" fill="#D9E1DF"/>
<path d="M26.1709 0.264225C26.312 0.328063 26.3868 0.341429 26.5448 0.357693C26.4036 0.293854 26.3289 0.280488 26.1709 0.264225Z" fill="#BFCFC8"/>
<path d="M30.6572 0.264225C30.8488 0.345916 31.0077 0.3533 31.218 0.357693C31.0264 0.276002 30.8675 0.268618 30.6572 0.264225Z" fill="#B7C9C1"/>
<path d="M31.2178 0.264225C31.3346 0.32825 31.3626 0.334232 31.4982 0.357693C31.3813 0.293667 31.3533 0.287685 31.2178 0.264225Z" fill="#DFE7E4"/>
<path d="M25.6104 0.357731C25.802 0.439422 25.9609 0.446805 26.1712 0.451198C25.9795 0.369508 25.8207 0.362124 25.6104 0.357731Z" fill="#AFC3BB"/>
<path d="M31.498 0.357731C31.6149 0.421756 31.6429 0.427738 31.7784 0.451198C31.6616 0.387173 31.6336 0.381191 31.498 0.357731Z" fill="#BFCFC8"/>
<path d="M31.7793 0.357731C31.8961 0.421756 31.9242 0.427738 32.0597 0.451198C31.9429 0.387173 31.9148 0.381191 31.7793 0.357731Z" fill="#DBE5E1"/>
<path d="M24.8623 0.450989C25.0277 0.5238 25.1464 0.536231 25.3296 0.544456C25.1642 0.471645 25.0455 0.459214 24.8623 0.450989Z" fill="#CDDBD5"/>
<path d="M25.3291 0.450989C25.4459 0.515014 25.474 0.520996 25.6095 0.544456C25.4927 0.480431 25.4646 0.474449 25.3291 0.450989Z" fill="#AFC3BB"/>
<path d="M32.0586 0.450989C32.1754 0.515014 32.2035 0.520996 32.339 0.544456C32.2222 0.480431 32.1941 0.474449 32.0586 0.450989Z" fill="#D5E1DD"/>
<path d="M24.5504 0.575757C24.5084 0.617257 24.6074 0.612115 24.6121 0.606974C24.6542 0.565381 24.5551 0.570617 24.5504 0.575757Z" fill="#E1E9E5"/>
<path d="M24.6758 0.544495C24.8169 0.608333 24.8917 0.621699 25.0497 0.637962C24.9085 0.574124 24.8337 0.560758 24.6758 0.544495Z" fill="#A7BDB4"/>
<path d="M32.402 0.575757C32.3599 0.617257 32.459 0.612115 32.4637 0.606974C32.5057 0.565381 32.4067 0.570617 32.402 0.575757Z" fill="#BBCDC5"/>
<path d="M32.5885 0.575757C32.5464 0.617257 32.6455 0.612208 32.6502 0.606974C32.6922 0.565381 32.5932 0.570617 32.5885 0.575757Z" fill="#DBE5DF"/>
<path d="M24.1143 0.638C24.2311 0.702026 24.2591 0.708008 24.3947 0.731468C24.2778 0.667443 24.2498 0.661461 24.1143 0.638Z" fill="#D7E1DD"/>
<path d="M32.8698 0.669263C32.8277 0.710763 32.9268 0.705714 32.9314 0.70048C32.9735 0.658887 32.8744 0.664122 32.8698 0.669263Z" fill="#D7DFDB"/>
<path d="M23.8033 0.762769C23.7613 0.804269 23.8604 0.79922 23.865 0.793986C23.9071 0.752393 23.808 0.757628 23.8033 0.762769Z" fill="#D9E5DE"/>
<path d="M23.9899 0.762769C23.9478 0.804269 24.0469 0.79922 24.0516 0.793986C24.0936 0.752393 23.9945 0.757628 23.9899 0.762769Z" fill="#B9CBC3"/>
<path d="M33.0573 0.762769C33.0152 0.804269 33.1143 0.79922 33.1189 0.793986C33.161 0.752393 33.0619 0.757628 33.0573 0.762769Z" fill="#BBCDC5"/>
<path d="M23.3672 0.825016C23.484 0.889041 23.5121 0.895023 23.6476 0.918484C23.5308 0.854458 23.5027 0.848476 23.3672 0.825016Z" fill="#E1EBE7"/>
<path d="M33.3672 0.825016C33.484 0.889041 33.5121 0.895023 33.6476 0.918484C33.5308 0.854458 33.5027 0.848476 33.3672 0.825016Z" fill="#CDD9D3"/>
<path d="M23.149 0.949533C23.107 0.991032 23.2061 0.985984 23.2107 0.980749C23.2528 0.939156 23.1537 0.944392 23.149 0.949533Z" fill="#CFDDD7"/>
<path d="M33.7106 0.949533C33.6685 0.991032 33.7676 0.985984 33.7723 0.980749C33.8143 0.939156 33.7152 0.944392 33.7106 0.949533Z" fill="#DBE3DF"/>
<path d="M22.8688 1.04304C22.8267 1.08463 22.9258 1.0794 22.9305 1.07426C22.9725 1.03266 22.8734 1.0379 22.8688 1.04304Z" fill="#D3DDD9"/>
<path d="M33.835 1.01178C33.9518 1.07581 33.9798 1.08179 34.1154 1.10525C33.9985 1.04122 33.9705 1.03524 33.835 1.01178Z" fill="#C1D1C9"/>
<path d="M22.4326 1.10529C22.5495 1.16931 22.5775 1.17529 22.713 1.19875C22.5962 1.13473 22.5681 1.12875 22.4326 1.10529Z" fill="#D9E3DF"/>
<path d="M34.1783 1.13654C34.1363 1.17804 34.2354 1.1729 34.24 1.16776C34.2821 1.12617 34.183 1.1314 34.1783 1.13654Z" fill="#DBE5E1"/>
<path d="M34.3649 1.23005C34.3228 1.27155 34.4219 1.26651 34.4266 1.26127C34.4686 1.21968 34.3695 1.22491 34.3649 1.23005Z" fill="#BDCFC7"/>
<path d="M21.9648 1.2923C22.0817 1.35632 22.1097 1.3623 22.2452 1.38576C22.1284 1.32174 22.1004 1.31576 21.9648 1.2923Z" fill="#C5D3CD"/>
<path d="M34.6451 1.32356C34.6031 1.36506 34.7022 1.36001 34.7068 1.35478C34.7489 1.31318 34.6498 1.31842 34.6451 1.32356Z" fill="#DDE5E2"/>
<path d="M21.6846 1.38581C21.8014 1.44983 21.8294 1.45581 21.965 1.47927C21.8481 1.41525 21.8201 1.40927 21.6846 1.38581Z" fill="#CFDBD7"/>
<path d="M34.8326 1.41707C34.7906 1.45857 34.8897 1.45352 34.8943 1.44828C34.9364 1.40669 34.8373 1.41193 34.8326 1.41707Z" fill="#DDE5E2"/>
<path d="M21.4664 1.51032C21.4244 1.55182 21.5234 1.54677 21.5281 1.54154C21.5702 1.49995 21.4711 1.50518 21.4664 1.51032Z" fill="#D5E1DD"/>
<path d="M35.0192 1.51032C34.9771 1.55192 35.0762 1.54668 35.0808 1.54154C35.1229 1.49995 35.0238 1.50518 35.0192 1.51032Z" fill="#DDE3E1"/>
<path d="M35.2057 1.60383C35.1636 1.64542 35.2627 1.64019 35.2674 1.63505C35.3094 1.59345 35.2104 1.59869 35.2057 1.60383Z" fill="#DDE7E3"/>
<path d="M20.9365 1.66608C21.0534 1.7301 21.0814 1.73608 21.2169 1.75954C21.1001 1.69552 21.0721 1.68954 20.9365 1.66608Z" fill="#C9D7D2"/>
<path d="M20.4688 1.85309C20.5856 1.91711 20.6136 1.9231 20.7492 1.94656C20.6323 1.88253 20.6043 1.87655 20.4688 1.85309Z" fill="#C9D5D1"/>
<path d="M35.6735 1.88435C35.6314 1.92585 35.7305 1.92071 35.7351 1.91557C35.7772 1.87397 35.6781 1.87921 35.6735 1.88435Z" fill="#D9E5DE"/>
<path d="M35.861 1.97786C35.8189 2.01936 35.918 2.01421 35.9226 2.00907C35.9647 1.96748 35.8656 1.97272 35.861 1.97786Z" fill="#DBE5E1"/>
<path d="M19.8154 2.13361C19.9323 2.19764 19.9603 2.20362 20.0958 2.22708C19.979 2.16305 19.951 2.15707 19.8154 2.13361Z" fill="#C5D3CD"/>
<path d="M19.6905 2.25813C19.6484 2.29963 19.7475 2.29458 19.7522 2.28934C19.7942 2.24775 19.6952 2.25299 19.6905 2.25813ZM19.5035 2.35159C19.4615 2.39309 19.5605 2.38804 19.5652 2.38281C19.6073 2.34122 19.5082 2.34645 19.5035 2.35159Z" fill="#BDCFC7"/>
<path d="M19.317 2.44514C19.275 2.48664 19.374 2.4815 19.3787 2.47635C19.4208 2.43476 19.3217 2.44 19.317 2.44514Z" fill="#BBCDC5"/>
<path d="M19.1295 2.53865C19.0875 2.58024 19.1865 2.57501 19.1912 2.56986C19.2333 2.52827 19.1342 2.53351 19.1295 2.53865Z" fill="#BDCFC7"/>
<path d="M18.8492 2.6319C18.8072 2.6735 18.9063 2.66826 18.9109 2.66312C18.953 2.62153 18.8539 2.62676 18.8492 2.6319Z" fill="#DDE5E2"/>
<path d="M18.3193 2.88121C18.5624 2.94935 18.7353 2.87392 18.9736 2.78774C18.7306 2.7196 18.5577 2.79503 18.3193 2.88121Z" fill="#ADC1B7"/>
<path d="M32.5264 3.44195C32.718 3.52364 32.8769 3.53103 33.0872 3.53542C32.8956 3.45373 32.7367 3.44634 32.5264 3.44195Z" fill="#D1DBD7"/>
<path d="M32.2461 3.53546C32.3629 3.59948 32.391 3.60546 32.5265 3.62893C32.4097 3.5649 32.3816 3.55892 32.2461 3.53546Z" fill="#D6DFDD"/>
<path d="M31.4052 6.5263C31.8828 6.63556 32.3127 6.72463 32.8072 6.71183C33.1334 6.70341 33.4512 6.64921 33.74 6.48732C34.8111 5.88726 34.5756 4.41066 33.6484 3.80443C33.1175 3.45804 32.5072 3.51103 31.966 3.79938C31.7426 3.91874 31.5566 4.06614 31.4267 4.28709C31.2762 4.54235 31.2248 4.83229 31.2201 5.12428C31.2117 5.60069 31.3444 6.05737 31.4052 6.5263Z" fill="white"/>
<path d="M33.0879 3.53546C33.2047 3.59948 33.2328 3.60546 33.3683 3.62893C33.2515 3.5649 33.2234 3.55892 33.0879 3.53546Z" fill="#DDE7E3"/>
<path d="M32.1217 3.66023C32.0796 3.70173 32.1787 3.69658 32.1834 3.69144C32.2254 3.64985 32.1264 3.65509 32.1217 3.66023Z" fill="#D5DFDB"/>
<path d="M31.3421 4.34561C31.3374 4.35084 31.3318 4.44936 31.3738 4.40786C31.3785 4.40272 31.3841 4.30402 31.3421 4.34561Z" fill="#E1E9E7"/>
<path d="M31.2178 4.37677V4.65717C31.2832 4.51192 31.2832 4.52202 31.2178 4.37677Z" fill="#B1C5BD"/>
<path d="M34.2405 4.43911C34.2358 4.44435 34.2302 4.54296 34.2723 4.50136C34.2769 4.49622 34.2825 4.39752 34.2405 4.43911Z" fill="#D7E3DD"/>
<path d="M15.485 4.59479C15.4429 4.63639 15.542 4.63115 15.5467 4.62601C15.5887 4.58442 15.4897 4.58965 15.485 4.59479Z" fill="#B5C7BF"/>
<path d="M31.124 4.65704V5.77865C31.2652 5.44179 31.2652 4.9939 31.124 4.65704Z" fill="#ABC1B9"/>
<path d="M34.427 4.81289C34.4223 4.81812 34.4167 4.91664 34.4588 4.87514C34.4635 4.87 34.4691 4.7713 34.427 4.81289Z" fill="#CDDBD5"/>
<path d="M34.4893 4.93756V5.4049C34.5668 5.21516 34.5668 5.1273 34.4893 4.93756Z" fill="#C7D7D1"/>
<path d="M38.9133 5.18692C38.9087 5.19215 38.9031 5.29067 38.9451 5.24917C38.9498 5.24403 38.9554 5.14532 38.9133 5.18692Z" fill="#BBCBC5"/>
<path d="M34.3965 5.49835V5.77875C34.4619 5.6336 34.4619 5.6436 34.3965 5.49835Z" fill="#BDCFC7"/>
<path d="M31.2493 5.74771C31.2446 5.75294 31.239 5.85146 31.2811 5.80996C31.2857 5.80482 31.2913 5.70611 31.2493 5.74771Z" fill="#CDD9D3"/>
<path d="M34.3333 5.84121C34.3286 5.84645 34.323 5.94496 34.365 5.90346C34.3697 5.89832 34.3753 5.79962 34.3333 5.84121Z" fill="#ADC1B9"/>
<path d="M39.4749 6.12148C39.4702 6.12672 39.4646 6.22523 39.5067 6.18373C39.5113 6.17859 39.5169 6.07989 39.4749 6.12148Z" fill="#B5C9C1"/>
<path d="M31.3421 6.21499C31.3374 6.22022 31.3318 6.31874 31.3738 6.27724C31.3785 6.2721 31.3841 6.1734 31.3421 6.21499Z" fill="#C9D7D2"/>
<path d="M33.8043 6.46418C33.7623 6.50568 33.8613 6.50063 33.866 6.49539C33.9081 6.4538 33.809 6.45904 33.8043 6.46418Z" fill="#B5C7BF"/>
<path d="M31.4053 6.52642C31.5221 6.59045 31.5501 6.59643 31.6857 6.61989C31.5688 6.55587 31.5408 6.54988 31.4053 6.52642Z" fill="#D3DFDA"/>
<path d="M33.6178 6.55768C33.5757 6.59918 33.6748 6.59404 33.6795 6.5889C33.7215 6.54731 33.6225 6.55254 33.6178 6.55768Z" fill="#B9CBC3"/>
<path d="M31.6846 6.61993C31.8014 6.68396 31.8294 6.68994 31.965 6.7134C31.8481 6.64937 31.8201 6.64339 31.6846 6.61993Z" fill="#C3D3CC"/>
<path d="M33.2744 6.61993C33.3912 6.68396 33.4193 6.68994 33.5548 6.7134C33.438 6.64937 33.4099 6.64339 33.2744 6.61993Z" fill="#DBE3DF"/>
<path d="M32.0586 6.7133C32.4044 6.85836 32.8082 6.80676 33.1802 6.80676C32.8344 6.6618 32.4306 6.7133 32.0586 6.7133Z" fill="#D1DBD7"/>
<path d="M39.9102 6.80695L40.0036 7.18082C40.0401 7.00098 40.0176 6.96033 39.9102 6.80695Z" fill="#D3DFDA"/>
<path d="M40.596 8.08437C40.5913 8.08961 40.5857 8.18812 40.6277 8.14662C40.6324 8.14148 40.638 8.04278 40.596 8.08437ZM40.8764 8.64518C40.8717 8.65032 40.8661 8.74902 40.9081 8.70743C40.9128 8.70229 40.9184 8.60359 40.8764 8.64518Z" fill="#D1DDD8"/>
<path d="M40.3779 8.76958C40.5434 8.8424 40.6621 8.85483 40.8453 8.86305C40.6798 8.79024 40.5611 8.77781 40.3779 8.76958Z" fill="#CDDBD3"/>
<path d="M39.6299 8.86309C39.771 8.92693 39.8458 8.94029 40.0038 8.95656C39.8626 8.89272 39.7878 8.87935 39.6299 8.86309Z" fill="#C5D5CD"/>
<path d="M40.0039 8.86309C40.145 8.92693 40.2198 8.94029 40.3778 8.95656C40.2366 8.89272 40.1619 8.87935 40.0039 8.86309Z" fill="#E3EBE7"/>
<path d="M38.6016 8.9566C38.7427 9.02043 38.8175 9.0338 38.9754 9.05006C38.8343 8.98623 38.7595 8.97286 38.6016 8.9566Z" fill="#A7BFB5"/>
<path d="M38.9756 8.9566C39.1167 9.02043 39.1915 9.0338 39.3495 9.05006C39.2083 8.98623 39.1335 8.97286 38.9756 8.9566Z" fill="#C6D5CF"/>
<path d="M38.2275 9.05011C38.4715 9.15274 38.7098 9.14292 38.9753 9.14358C38.7313 9.04095 38.493 9.05076 38.2275 9.05011Z" fill="#E5EDEB"/>
<path d="M37.3867 9.14361C37.5036 9.20764 37.5316 9.21362 37.6671 9.23708C37.5503 9.17305 37.5222 9.16707 37.3867 9.14361Z" fill="#A9C1B7"/>
<path d="M37.667 9.14361C37.8586 9.2253 38.0175 9.23269 38.2278 9.23708C38.0362 9.15539 37.8773 9.148 37.667 9.14361Z" fill="#DFE7E4"/>
<path d="M37.0758 9.26813C37.0337 9.30963 37.1328 9.30458 37.1375 9.29935C37.1795 9.25775 37.0805 9.26299 37.0758 9.26813Z" fill="#ADC3BB"/>
<path d="M37.2002 9.23712C37.3656 9.30993 37.4843 9.32236 37.6675 9.33059C37.5021 9.25777 37.3834 9.24534 37.2002 9.23712Z" fill="#EBEFEF"/>
<path d="M36.5449 9.33062C36.6618 9.39465 36.6898 9.40063 36.8253 9.42409C36.7085 9.36007 36.6804 9.35408 36.5449 9.33062Z" fill="#ADC3BB"/>
<path d="M36.1403 9.54865C36.0982 9.59015 36.1973 9.585 36.2019 9.57986C36.244 9.53827 36.1449 9.54351 36.1403 9.54865Z" fill="#D1DBD7"/>
<path d="M35.861 9.64216C35.8189 9.68375 35.918 9.67851 35.9226 9.67337C35.9647 9.63178 35.8656 9.63702 35.861 9.64216Z" fill="#D5DFDB"/>
<path d="M34.3025 11.1998C34.2557 11.4508 34.2202 11.6923 34.209 11.9475C34.3426 11.6955 34.3997 11.4706 34.3025 11.1998Z" fill="#DBE3DF"/>
<path d="M34.1152 11.8541V13.1626C34.2713 12.7913 34.2713 12.2253 34.1152 11.8541Z" fill="#B9CDC3"/>
<path d="M34.2405 13.225C34.2358 13.2301 34.2302 13.3288 34.2723 13.2872C34.2769 13.2821 34.2825 13.1834 34.2405 13.225Z" fill="#C9D5D1"/>
<path d="M34.3018 13.3497V13.7235C34.3681 13.559 34.3681 13.5142 34.3018 13.3497Z" fill="#EBF1EE"/>
<path d="M34.3333 13.7858C34.3286 13.791 34.323 13.8895 34.365 13.848C34.3697 13.8429 34.3753 13.7442 34.3333 13.7858Z" fill="#B1C3BB"/>
<path d="M34.427 14.0663C34.4223 14.0715 34.4167 14.1701 34.4588 14.1286C34.4635 14.1234 34.4691 14.0247 34.427 14.0663Z" fill="#B3C7BF"/>
<path d="M34.5198 14.3468C34.5151 14.3521 34.5095 14.4507 34.5516 14.4091C34.5562 14.4039 34.5618 14.3052 34.5198 14.3468Z" fill="#AFC3BB"/>
<path d="M34.7073 14.7206C34.7026 14.7258 34.697 14.8244 34.7391 14.7829C34.7437 14.7777 34.7493 14.679 34.7073 14.7206Z" fill="#B5C9C1"/>
<path d="M4.23658 16.7767C4.23191 16.782 4.22631 16.8806 4.26837 16.839C4.27304 16.8339 4.27864 16.7352 4.23658 16.7767Z" fill="#ABC1B9"/>
<path d="M37.4489 17.7737C37.4068 17.8153 37.5059 17.8101 37.5105 17.805C37.5526 17.7634 37.4535 17.7686 37.4489 17.7737Z" fill="#D9E3DF"/>
<path d="M39.7867 18.7086C39.7447 18.7501 39.8438 18.745 39.8484 18.7398C39.8905 18.6982 39.7914 18.7034 39.7867 18.7086Z" fill="#C1D1CB"/>
<path d="M40.1608 18.8018C40.1187 18.8433 40.2178 18.8383 40.2224 18.833C40.2645 18.7914 40.1654 18.7967 40.1608 18.8018Z" fill="#D5DFDB"/>
<path d="M40.5338 18.8953C40.4918 18.9369 40.5908 18.9317 40.5955 18.9265C40.6376 18.8849 40.5385 18.8902 40.5338 18.8953Z" fill="#E3EBE7"/>
<path d="M40.9078 18.9888C40.8658 19.0303 40.9648 19.0252 40.9695 19.02C41.0116 18.9784 40.9125 18.9837 40.9078 18.9888Z" fill="#D9E1DF"/>
<path d="M41.5621 19.1758C41.5201 19.2174 41.6191 19.2122 41.6238 19.2071C41.6659 19.1655 41.5668 19.1707 41.5621 19.1758Z" fill="#AFC3B9"/>
<path d="M42.0299 19.2693C41.9878 19.3108 42.0869 19.3058 42.0916 19.3006C42.1336 19.259 42.0346 19.2642 42.0299 19.2693Z" fill="#B3C7BF"/>
<path d="M42.3408 19.3316C42.4577 19.3956 42.4857 19.4016 42.6212 19.4251C42.5044 19.361 42.4763 19.355 42.3408 19.3316Z" fill="#ADC3B9"/>
<path d="M42.9645 19.4561C42.9224 19.4976 43.0215 19.4926 43.0262 19.4873C43.0682 19.4457 42.9692 19.451 42.9645 19.4561Z" fill="#CDDBD5"/>
<path d="M43.3385 19.5496C43.2964 19.5911 43.3955 19.5861 43.4002 19.5808C43.4422 19.5392 43.3432 19.5445 43.3385 19.5496Z" fill="#C5D3CF"/>
<path d="M43.7432 19.6119C43.8843 19.6757 43.96 19.6891 44.117 19.7053C43.9759 19.6415 43.9011 19.6281 43.7432 19.6119Z" fill="#E9EFEC"/>
<path d="M44.1172 19.7054C44.2583 19.7692 44.3331 19.7826 44.4911 19.7988C44.3499 19.735 44.2751 19.7216 44.1172 19.7054Z" fill="#EBF1EE"/>
<path d="M44.3965 19.7989C44.5133 19.8629 44.5414 19.8689 44.6769 19.8923C44.5601 19.8283 44.532 19.8223 44.3965 19.7989Z" fill="#BBCDC5"/>
<path d="M44.7399 19.8301C44.6978 19.8716 44.7969 19.8666 44.8016 19.8613C44.8436 19.8198 44.7445 19.825 44.7399 19.8301Z" fill="#E3EBE7"/>
<path d="M44.8643 19.8924C45.0054 19.9562 45.0802 19.9696 45.2381 19.9858C45.097 19.922 45.0222 19.9086 44.8643 19.8924Z" fill="#D7E3DB"/>
<path d="M45.3311 19.9859C45.4479 20.0499 45.4759 20.0559 45.6115 20.0794C45.4946 20.0153 45.4666 20.0093 45.3311 19.9859Z" fill="#CDDBD5"/>
<path d="M45.5186 20.0794C45.6597 20.1432 45.7345 20.1566 45.8924 20.1729C45.7513 20.109 45.6765 20.0957 45.5186 20.0794Z" fill="#ADC3BB"/>
<path d="M2.36744 20.2352C2.36277 20.2404 2.35717 20.3391 2.39923 20.2975C2.4039 20.2924 2.4095 20.1937 2.36744 20.2352Z" fill="#ABC1B9"/>
<path d="M45.9557 20.2039C45.9136 20.2454 46.0127 20.2403 46.0174 20.2351C46.0594 20.1935 45.9604 20.1988 45.9557 20.2039Z" fill="#B7C9C1"/>
<path d="M46.1422 20.2039C46.1002 20.2454 46.1992 20.2404 46.2039 20.2351C46.246 20.1935 46.1469 20.1988 46.1422 20.2039Z" fill="#D1DDD8"/>
<path d="M46.2656 20.2662C46.3825 20.3302 46.4105 20.3362 46.546 20.3596C46.4292 20.2956 46.4012 20.2896 46.2656 20.2662Z" fill="#B3C7BD"/>
<path d="M2.24316 20.3597V20.6401C2.30859 20.4949 2.30859 20.5049 2.24316 20.3597Z" fill="#B1C5BB"/>
<path d="M46.5469 20.3597C46.6637 20.4237 46.6917 20.4297 46.8273 20.4531C46.7104 20.3891 46.6824 20.3831 46.5469 20.3597Z" fill="#B3C5BD"/>
<path d="M2.18092 20.7025C2.17624 20.7077 2.17064 20.8063 2.2127 20.7648C2.21738 20.7596 2.22298 20.6609 2.18092 20.7025Z" fill="#ADC1B9"/>
<path d="M2.05664 20.8269V21.1073C2.12207 20.9621 2.12207 20.9722 2.05664 20.8269Z" fill="#B9CBC3"/>
<path d="M1.99342 21.1698C1.98874 21.175 1.98314 21.2736 2.0252 21.2321C2.02988 21.2269 2.03548 21.1282 1.99342 21.1698Z" fill="#ADC3B9"/>
<path d="M1.90064 21.3568C1.89597 21.3621 1.89037 21.4606 1.93243 21.4191C1.9371 21.4139 1.9427 21.3152 1.90064 21.3568Z" fill="#AFC3BB"/>
<path d="M1.77539 21.3877V21.6681C1.84082 21.5229 1.84082 21.533 1.77539 21.3877Z" fill="#DFE7E4"/>
<path d="M49.694 21.606C49.6519 21.6475 49.751 21.6425 49.7557 21.6372C49.7977 21.5956 49.6986 21.6009 49.694 21.606Z" fill="#E4EBE9"/>
<path d="M49.8805 21.6995C49.8384 21.741 49.9375 21.736 49.9422 21.7307C49.9842 21.6891 49.8852 21.6944 49.8805 21.6995Z" fill="#E3E9E7"/>
<path d="M1.68331 21.7618L1.58984 22.2291C1.71322 22.0491 1.74407 21.9706 1.68331 21.7618Z" fill="#D3DDD9"/>
<path d="M50.068 21.7928C50.0259 21.8344 50.125 21.8291 50.1297 21.824C50.1717 21.7824 50.0727 21.7876 50.068 21.7928Z" fill="#DFE9E5"/>
<path d="M50.2545 21.8863C50.2125 21.9278 50.3115 21.9226 50.3162 21.9175C50.3583 21.8759 50.2592 21.8811 50.2545 21.8863Z" fill="#DFE7E4"/>
<path d="M50.442 21.9798C50.4 22.0213 50.499 22.0161 50.5037 22.011C50.5458 21.9694 50.4467 21.9746 50.442 21.9798Z" fill="#DDE7E3"/>
<path d="M50.6285 22.0733C50.5865 22.1149 50.6855 22.1097 50.6902 22.1045C50.7323 22.0629 50.6332 22.0682 50.6285 22.0733ZM50.8155 22.1668C50.7734 22.2083 50.8725 22.2031 50.8772 22.198C50.9192 22.1563 50.8202 22.1617 50.8155 22.1668Z" fill="#DBE5E1"/>
<path d="M1.49512 22.229V22.5095C1.56054 22.3642 1.56054 22.3743 1.49512 22.229Z" fill="#D6E1DB"/>
<path d="M1.43287 22.6654C1.4282 22.6706 1.4226 22.7693 1.46466 22.7277C1.46933 22.7225 1.47493 22.6238 1.43287 22.6654Z" fill="#C5D3CD"/>
<path d="M1.3401 22.9457C1.33542 22.9509 1.32982 23.0494 1.37188 23.0079C1.37656 23.0028 1.38216 22.9041 1.3401 22.9457Z" fill="#C5D5D1"/>
<path d="M1.21582 23.0704V23.3508C1.28125 23.2055 1.28125 23.2156 1.21582 23.0704Z" fill="#DBE5E1"/>
<path d="M1.1526 23.6C1.14792 23.6052 1.14232 23.7037 1.18438 23.6622C1.18906 23.6571 1.19466 23.5584 1.1526 23.6Z" fill="#C5D3CB"/>
<path d="M1.02734 23.7244V24.0048C1.09277 23.8596 1.09277 23.8697 1.02734 23.7244Z" fill="#DDE5E2"/>
<path d="M0.93457 24.0049V24.2853C0.999998 24.1401 0.999998 24.1502 0.93457 24.0049Z" fill="#DBE5E1"/>
<path d="M0.872324 24.5346C0.867651 24.5398 0.862051 24.6383 0.904111 24.5968C0.908784 24.5917 0.914384 24.493 0.872324 24.5346Z" fill="#D6E1DB"/>
<path d="M42.5273 24.4722L42.6208 25.2199C42.79 24.9209 42.7554 24.7232 42.5273 24.4722Z" fill="#E4EBE9"/>
<path d="M0.778574 24.9086C0.773901 24.9137 0.768301 25.0124 0.810361 24.9708C0.815034 24.9657 0.820634 24.867 0.778574 24.9086Z" fill="#D7E1DD"/>
<path d="M42.6526 25.2824C42.6479 25.2876 42.6423 25.3861 42.6844 25.3446C42.6891 25.3395 42.6947 25.2408 42.6526 25.2824Z" fill="#C3D1CB"/>
<path d="M43.0266 25.2824C43.0219 25.2876 43.0163 25.3861 43.0584 25.3446C43.0631 25.3395 43.0687 25.2408 43.0266 25.2824Z" fill="#E4EBE9"/>
<path d="M0.684824 25.3759C0.680151 25.3811 0.674551 25.4796 0.716611 25.4381C0.721284 25.433 0.726884 25.3343 0.684824 25.3759Z" fill="#BFCFC8"/>
<path d="M42.7139 25.407V25.6874C42.7793 25.5422 42.7793 25.5523 42.7139 25.407Z" fill="#E1E9E5"/>
<path d="M0.59205 25.7496C0.587377 25.7549 0.581777 25.8534 0.623838 25.8119C0.628511 25.8067 0.634111 25.708 0.59205 25.7496Z" fill="#D5E3DD"/>
<path d="M42.7139 25.6873V26.1546C42.7914 25.9649 42.7914 25.877 42.7139 25.6873Z" fill="#B1C5BD"/>
<path d="M42.8086 25.9678V26.7156C42.917 26.4567 42.917 26.2267 42.8086 25.9678Z" fill="#D1DFD9"/>
<path d="M0.466797 26.2481V26.5285C0.532224 26.3832 0.532224 26.3933 0.466797 26.2481Z" fill="#B9CBC3"/>
<path d="M15.7021 26.5286V26.809H15.8891V26.5286H15.7021Z" fill="#ABBFB7"/>
<path d="M0.374023 26.6221V26.9025C0.439451 26.7573 0.439451 26.7674 0.374023 26.6221Z" fill="#DFE7E4"/>
<path d="M42.9014 26.7154V27.4631C43.0098 27.2042 43.0098 26.9743 42.9014 26.7154Z" fill="#DDE5E2"/>
<path d="M43.8674 26.778C43.8628 26.7832 43.8572 26.8817 43.8992 26.8402C43.9039 26.8351 43.9095 26.7364 43.8674 26.778Z" fill="#DFE7E4"/>
<path d="M15.7021 26.8089C15.7489 27.0599 15.7844 27.3014 15.7956 27.5566C15.9096 27.2837 15.9339 27.011 15.7021 26.8089Z" fill="#C5D5D1"/>
<path d="M15.6399 27.1517C15.6352 27.157 15.6296 27.2555 15.6717 27.214C15.6764 27.2088 15.682 27.1101 15.6399 27.1517Z" fill="#B7C9C1"/>
<path d="M0.28125 27.4632V27.837C0.347612 27.6725 0.347612 27.6277 0.28125 27.4632Z" fill="#B7C9C1"/>
<path d="M42.9014 27.4632V27.9305C42.9789 27.7408 42.9789 27.653 42.9014 27.4632Z" fill="#ABBFB7"/>
<path d="M15.5471 27.619C15.5425 27.6242 15.5369 27.7229 15.5789 27.6813C15.5836 27.6761 15.5892 27.5774 15.5471 27.619Z" fill="#B3C7BF"/>
<path d="M15.7959 27.5567V28.3044C15.9043 28.0455 15.9043 27.8156 15.7959 27.5567Z" fill="#D7E1DD"/>
<path d="M15.8896 27.5567V29.0522C16.0588 28.6485 16.0588 27.9604 15.8896 27.5567Z" fill="#9FB7AD"/>
<path d="M44.3352 27.619C44.3305 27.6242 44.3249 27.7229 44.367 27.6813C44.3717 27.6761 44.3773 27.5774 44.3352 27.619Z" fill="#C1D1CB"/>
<path d="M42.9951 27.6502V28.6783C43.1288 28.3596 43.1288 27.9689 42.9951 27.6502Z" fill="#D3DFDA"/>
<path d="M15.4524 28.1798C15.4477 28.185 15.4421 28.2836 15.4842 28.2421C15.4889 28.2369 15.4945 28.1382 15.4524 28.1798Z" fill="#B9CBC3"/>
<path d="M0.186523 28.211V28.6783C0.264102 28.4886 0.264102 28.4008 0.186523 28.211Z" fill="#BDCDC5"/>
<path d="M44.7083 28.3668C44.7036 28.3721 44.698 28.4706 44.74 28.4291C44.7447 28.4239 44.7503 28.3252 44.7083 28.3668Z" fill="#E3EBE7"/>
<path d="M15.3291 28.4912V28.7716C15.3945 28.6264 15.3945 28.6365 15.3291 28.4912Z" fill="#AFC5BB"/>
<path d="M42.9951 28.6783V29.1456C43.0727 28.9559 43.0727 28.8681 42.9951 28.6783Z" fill="#ADC1B9"/>
<path d="M43.0879 28.6783V31.8562C43.2122 31.5602 43.1814 31.241 43.1814 30.9215C43.1814 30.2471 43.3496 29.3023 43.0879 28.6783Z" fill="#D7E3DD"/>
<path d="M15.3291 28.7718V29.2391C15.4067 29.0494 15.4067 28.9615 15.3291 28.7718Z" fill="#E9EFEC"/>
<path d="M44.9885 28.8341C44.9839 28.8392 44.9783 28.938 45.0203 28.8964C45.025 28.8912 45.0306 28.7925 44.9885 28.8341Z" fill="#DDE5E2"/>
<path d="M0.0927734 28.8653V29.3326C0.170352 29.1429 0.170352 29.055 0.0927734 28.8653Z" fill="#D3DDD9"/>
<path d="M45.0823 29.0211C45.0776 29.0264 45.072 29.1249 45.1141 29.0834C45.1187 29.0782 45.1243 28.9795 45.0823 29.0211Z" fill="#DFE7E4"/>
<path d="M15.8896 29.0523V30.0804C16.0233 29.7617 16.0233 29.371 15.8896 29.0523Z" fill="#B1C5BB"/>
<path d="M45.176 29.2081C45.1714 29.2134 45.1658 29.3119 45.2078 29.2704C45.2125 29.2652 45.2181 29.1665 45.176 29.2081Z" fill="#DFE7E4"/>
<path d="M15.2659 29.3014C15.2612 29.3065 15.2556 29.4052 15.2977 29.3636C15.3023 29.3585 15.3079 29.2598 15.2659 29.3014Z" fill="#CDD9D5"/>
<path d="M0.0927734 29.3326V29.9868C0.191849 29.75 0.191849 29.5694 0.0927734 29.3326Z" fill="#BDCFC7"/>
<path d="M15.2344 29.4261V29.7999C15.3007 29.6354 15.3007 29.5906 15.2344 29.4261Z" fill="#E9EFEC"/>
<path d="M45.3626 29.5819C45.3579 29.5871 45.3523 29.6857 45.3943 29.6442C45.399 29.639 45.4046 29.5403 45.3626 29.5819Z" fill="#DFE7E4"/>
<path d="M15.1731 29.8624C15.1684 29.8676 15.1628 29.9662 15.2049 29.9247C15.2096 29.9195 15.2152 29.8208 15.1731 29.8624Z" fill="#C9D7D2"/>
<path d="M0.0927734 29.9869V32.3235C0.31803 31.7861 0.31803 30.5243 0.0927734 29.9869Z" fill="#A1BBB1"/>
<path d="M15.8896 30.0804V33.1648C16.142 32.5632 15.9831 31.6647 15.9831 31.015C15.9831 30.6955 16.014 30.3762 15.8896 30.0804Z" fill="#C3D1CB"/>
<path d="M15.0794 30.3297C15.0747 30.335 15.0691 30.4335 15.1111 30.392C15.1158 30.3868 15.1214 30.2881 15.0794 30.3297Z" fill="#C9D7D2"/>
<path d="M48.8828 30.3608C49.553 30.642 50.5877 30.4543 51.313 30.4543C50.6428 30.1731 49.6081 30.3608 48.8828 30.3608Z" fill="#9FB9AD"/>
<path d="M48.2295 30.4541C48.4473 30.5462 48.6464 30.5458 48.8838 30.5476C48.666 30.4556 48.4669 30.4559 48.2295 30.4541Z" fill="#ABC1B7"/>
<path d="M48.8828 30.4541C49.0744 30.5358 49.2333 30.5432 49.4436 30.5476C49.252 30.4659 49.0931 30.4585 48.8828 30.4541ZM50.9391 30.4541C51.0802 30.518 51.155 30.5313 51.313 30.5476C51.1718 30.4838 51.0971 30.4704 50.9391 30.4541Z" fill="#DFE7E4"/>
<path d="M51.3135 30.4541C51.5313 30.5462 51.7303 30.5458 51.9677 30.5476C51.75 30.4556 51.5509 30.4559 51.3135 30.4541Z" fill="#A7BDB4"/>
<path d="M0 30.5476V31.5758C0.133659 31.2571 0.133659 30.8664 0 30.5476Z" fill="#E7EDE9"/>
<path d="M45.9231 30.61C45.9184 30.6152 45.9128 30.7137 45.9549 30.6722C45.9596 30.6671 45.9652 30.5684 45.9231 30.61Z" fill="#E4EBE9"/>
<path d="M47.1074 30.5476C47.299 30.6293 47.4579 30.6367 47.6682 30.6411C47.4766 30.5594 47.3177 30.552 47.1074 30.5476Z" fill="#B3C5BD"/>
<path d="M47.6689 30.5476C47.8101 30.6115 47.8849 30.6248 48.0428 30.6411C47.9017 30.5773 47.8269 30.5639 47.6689 30.5476Z" fill="#E3EBE7"/>
<path d="M51.9678 30.5476C52.0846 30.6117 52.1126 30.6176 52.2482 30.6411C52.1313 30.5771 52.1033 30.5711 51.9678 30.5476Z" fill="#CBD7D2"/>
<path d="M45.9863 30.6411C46.1779 30.7228 46.3368 30.7302 46.5471 30.7346C46.3555 30.6529 46.1966 30.6455 45.9863 30.6411Z" fill="#BDCDC5"/>
<path d="M46.5469 30.6411C46.7385 30.7228 46.8974 30.7302 47.1077 30.7346C46.9161 30.6529 46.7572 30.6455 46.5469 30.6411Z" fill="#E5EDEB"/>
<path d="M52.4977 30.6724C52.4556 30.7139 52.5547 30.7089 52.5594 30.7036C52.6014 30.662 52.5024 30.6673 52.4977 30.6724Z" fill="#D1DDD8"/>
<path d="M14.9551 30.7347V31.0151C15.0205 30.8698 15.0205 30.8799 14.9551 30.7347Z" fill="#C5D3CD"/>
<path d="M52.8717 30.7657C52.8296 30.8072 52.9287 30.802 52.9334 30.7969C52.9754 30.7553 52.8764 30.7605 52.8717 30.7657Z" fill="#D3DFDA"/>
<path d="M52.9961 30.7347C53.1129 30.7987 53.141 30.8047 53.2765 30.8281C53.1597 30.7641 53.1316 30.7581 52.9961 30.7347Z" fill="#B3C7BF"/>
<path d="M53.2764 30.8282C53.3932 30.8922 53.4212 30.8982 53.5568 30.9216C53.4399 30.8576 53.4119 30.8516 53.2764 30.8282Z" fill="#B9CBC3"/>
<path d="M53.6198 30.9527C53.5777 30.9942 53.6768 30.9892 53.6814 30.9839C53.7235 30.9422 53.6244 30.9476 53.6198 30.9527Z" fill="#ADC3BB"/>
<path d="M59.7561 30.984C59.7514 30.9891 59.7458 31.0878 59.7879 31.0462C59.7926 31.041 59.7982 30.9425 59.7561 30.984Z" fill="#B1C5BF"/>
<path d="M53.8063 31.0462C53.7642 31.0877 53.8633 31.0825 53.868 31.0774C53.91 31.0358 53.8109 31.041 53.8063 31.0462Z" fill="#CDD9D5"/>
<path d="M14.8613 31.1084V31.4823C14.9277 31.3178 14.9277 31.2729 14.8613 31.1084Z" fill="#BCCDC7"/>
<path d="M54.0865 31.1397C54.0445 31.1812 54.1436 31.1761 54.1482 31.1709C54.1903 31.1293 54.0912 31.1346 54.0865 31.1397Z" fill="#D1DDD8"/>
<path d="M14.7676 31.5757V31.9496C14.8339 31.7851 14.8339 31.7402 14.7676 31.5757Z" fill="#BCCDC7"/>
<path d="M49.1641 31.6692C49.408 31.7719 49.6464 31.762 49.9118 31.7627C49.6679 31.6601 49.4295 31.6699 49.1641 31.6692Z" fill="#F9F1EB"/>
<path d="M48.6657 31.794C48.6236 31.8355 48.7227 31.8304 48.7273 31.8252C48.7694 31.7836 48.6703 31.7888 48.6657 31.794Z" fill="#E9D1B9"/>
<path d="M43.5557 34.6603V34.8472C44.4278 35.1727 45.2419 35.5879 46.0793 35.9929C46.5682 36.2293 47.0365 36.5271 47.5748 36.6231C47.072 37.4934 46.3009 38.2285 45.6204 38.9598C44.5325 40.1283 43.3529 41.2992 42.4276 42.6049C41.7724 43.5303 41.1059 44.5846 40.8302 45.6978C40.0741 48.7509 41.4863 52.1957 42.9014 54.8493C43.6782 54.4562 44.3212 53.4707 44.8531 52.793C45.6821 51.737 46.5084 50.6975 47.3056 49.6151C47.729 49.0385 48.0908 48.3353 48.603 47.8392C47.6674 49.8161 46.9495 51.8622 45.9625 53.8211C45.7232 54.2963 45.455 54.7565 45.1998 55.2232C45.0708 55.4583 44.8699 55.7611 44.911 56.0444C44.9661 56.4209 45.5877 56.5841 45.884 56.7065C46.5654 56.9879 47.2047 57.3199 47.8552 57.6637C48.1067 57.7964 48.445 57.8837 48.6002 58.1417C48.7404 58.3746 48.6964 58.7022 48.6964 58.9619C48.6964 59.5213 48.6759 60.0853 48.7002 60.6443C48.7871 62.6362 49.1227 64.6357 49.1638 66.6262C49.5068 65.913 49.5115 64.9722 49.6386 64.196C49.9601 62.2303 50.191 60.1113 50.1919 58.1206C50.6976 58.1206 51.1845 58.185 51.6874 58.2105C51.9155 58.2221 52.2015 58.1864 52.3791 58.3639C52.5538 58.5388 52.5267 58.8293 52.5286 59.0553C52.5323 59.5529 52.5109 60.0536 52.5324 60.5508C52.6193 62.5286 53.0268 64.4702 53.1829 66.4393C53.4848 65.9355 53.4212 65.2345 53.4904 64.6634C53.6717 63.1424 53.7241 61.6096 53.8287 60.0835C53.8643 59.5599 53.7082 58.8881 53.9605 58.4061C54.2054 57.9376 54.8915 57.6507 55.3326 57.3992C56.2645 56.8676 57.1852 56.2909 58.0432 55.6461C60.6145 53.7135 62.1988 50.6763 62.339 47.4653C62.3904 46.2964 62.396 45.0674 62.1922 43.9136C61.3996 39.4421 58.2507 35.1906 54.211 33.142C52.6408 32.3455 50.7789 31.586 48.9768 31.7791C46.8271 32.0093 45.2961 33.573 43.5557 34.6603Z" fill="#D7A57D"/>
<path d="M50.1914 31.7627C50.3082 31.8268 50.3363 31.8327 50.4718 31.8562C50.355 31.7922 50.3269 31.7862 50.1914 31.7627Z" fill="#E1BDA0"/>
<path d="M42.9951 31.8562V32.3236C43.0727 32.1338 43.0727 32.046 42.9951 31.8562Z" fill="#BFD1C9"/>
<path d="M48.1357 31.8562C48.2526 31.9203 48.2806 31.9262 48.4161 31.9497C48.2993 31.8857 48.2713 31.8797 48.1357 31.8562Z" fill="#E9D1BF"/>
<path d="M50.816 31.8875C50.774 31.9291 50.873 31.9238 50.8777 31.9187C50.9198 31.877 50.8207 31.8824 50.816 31.8875Z" fill="#E3C1A7"/>
<path d="M14.7053 32.0121C14.7007 32.0172 14.6951 32.1159 14.7371 32.0743C14.7418 32.0692 14.7474 31.9705 14.7053 32.0121Z" fill="#ADC1B9"/>
<path d="M47.9176 31.9808C47.8755 32.0223 47.9746 32.0171 47.9793 32.012C48.0213 31.9704 47.9223 31.9756 47.9176 31.9808Z" fill="#EAD1BD"/>
<path d="M60.3176 32.0121C60.313 32.0172 60.3073 32.1159 60.3494 32.0743C60.3541 32.0691 60.3597 31.9706 60.3176 32.0121Z" fill="#E3EBE7"/>
<path d="M14.6738 32.1365V32.5104C14.7402 32.3459 14.7402 32.301 14.6738 32.1365Z" fill="#DFE7E4"/>
<path d="M60.4114 32.1991C60.4067 32.2042 60.4011 32.303 60.4432 32.2614C60.4478 32.2561 60.4535 32.1575 60.4114 32.1991Z" fill="#E3EBE7"/>
<path d="M47.1696 32.2613C47.1275 32.3028 47.2266 32.2977 47.2312 32.2925C47.2733 32.2509 47.1742 32.2561 47.1696 32.2613Z" fill="#E9CFB9"/>
<path d="M0.0927734 32.3235V32.6974C0.159135 32.5329 0.159135 32.488 0.0927734 32.3235Z" fill="#BDCFC7"/>
<path d="M42.9951 32.3235V32.7909C43.0727 32.6011 43.0727 32.5133 42.9951 32.3235Z" fill="#DFE7E4"/>
<path d="M52.6852 32.4483C52.6431 32.4899 52.7422 32.4846 52.7469 32.4795C52.7889 32.4379 52.6899 32.4431 52.6852 32.4483Z" fill="#EFDBCD"/>
<path d="M14.6126 32.5729C14.6079 32.578 14.6023 32.6766 14.6443 32.6351C14.649 32.63 14.6546 32.5313 14.6126 32.5729Z" fill="#BBCDC5"/>
<path d="M46.7028 32.5415C46.6607 32.5831 46.7598 32.5779 46.7644 32.5728C46.8065 32.5312 46.7074 32.5364 46.7028 32.5415Z" fill="#DFB798"/>
<path d="M0.0927734 32.6973V33.1646C0.170352 32.9749 0.170352 32.887 0.0927734 32.6973Z" fill="#D1DDD8"/>
<path d="M14.5811 32.6973V32.9777C14.6465 32.8325 14.6465 32.8425 14.5811 32.6973Z" fill="#D9E3DF"/>
<path d="M15.7959 32.6973V33.632C15.9221 33.3322 15.9221 32.997 15.7959 32.6973Z" fill="#E9EFEC"/>
<path d="M42.9014 32.7908V33.4451C43.0004 33.2082 43.0004 33.0276 42.9014 32.7908Z" fill="#BFCFC8"/>
<path d="M47.5742 32.8843C47.7658 32.966 47.9247 32.9734 48.135 32.9778C47.9434 32.8961 47.7845 32.8887 47.5742 32.8843Z" fill="#E5C5AC"/>
<path d="M14.4873 32.9778V33.2582C14.5527 33.1131 14.5527 33.1231 14.4873 32.9778Z" fill="#CDD9D3"/>
<path d="M47.4508 33.0091C47.4087 33.0506 47.5078 33.0455 47.5125 33.0403C47.5545 32.9987 47.4555 33.0039 47.4508 33.0091Z" fill="#E7C7B0"/>
<path d="M47.5769 33.0313C46.445 33.36 46.9731 35.1751 48.1359 34.8618C49.3117 34.5447 48.7752 32.683 47.5769 33.0313Z" fill="white"/>
<path d="M48.2916 33.0091C48.2496 33.0507 48.3486 33.0454 48.3533 33.0403C48.3954 32.9987 48.2963 33.0039 48.2916 33.0091Z" fill="#E1BB9F"/>
<path d="M45.7682 33.1023C45.7261 33.1438 45.8252 33.1387 45.8299 33.1336C45.8719 33.092 45.7729 33.0972 45.7682 33.1023Z" fill="#E1BDA0"/>
<path d="M14.3936 33.2581V33.632C14.4599 33.4675 14.4599 33.4226 14.3936 33.2581Z" fill="#B5C7BF"/>
<path d="M47.0452 33.3207C47.0405 33.3259 47.0349 33.4244 47.077 33.3829C47.0816 33.3778 47.0872 33.2791 47.0452 33.3207Z" fill="#E5C9B1"/>
<path d="M48.7278 33.4142C48.7231 33.4194 48.7175 33.518 48.7596 33.4764C48.7643 33.4713 48.7699 33.3726 48.7278 33.4142Z" fill="#F1E3D6"/>
<path d="M60.8782 33.4142C60.8735 33.4193 60.8679 33.518 60.91 33.4764C60.9146 33.4712 60.9202 33.3726 60.8782 33.4142Z" fill="#B3C7BF"/>
<path d="M42.8086 33.4451V34.0059C42.8974 33.7923 42.8974 33.6587 42.8086 33.4451Z" fill="#CBD7D2"/>
<path d="M46.9524 33.6009C46.9477 33.6062 46.9421 33.7047 46.9842 33.6632C46.9889 33.6581 46.9945 33.5594 46.9524 33.6009Z" fill="#EAD1BD"/>
<path d="M48.79 33.5386V34.2863C48.8985 34.0274 48.8985 33.7975 48.79 33.5386Z" fill="#F5E9E1"/>
<path d="M0.186523 33.6321V34.0995C0.264102 33.9097 0.264102 33.8219 0.186523 33.6321Z" fill="#CDD9D5"/>
<path d="M14.2998 33.6321V34.006C14.3662 33.8416 14.3662 33.7965 14.2998 33.6321Z" fill="#B1C5BD"/>
<path d="M15.7959 33.6321V34.4733C15.9137 34.1935 15.9137 33.912 15.7959 33.6321Z" fill="#D7E1DD"/>
<path d="M46.8271 33.7256V34.2864C46.9159 34.0729 46.9159 33.9392 46.8271 33.7256Z" fill="#E3BFA5"/>
<path d="M61.0647 33.8814C61.06 33.8866 61.0544 33.9853 61.0965 33.9437C61.1012 33.9385 61.1068 33.8399 61.0647 33.8814Z" fill="#B7CBC3"/>
<path d="M14.2385 34.0682C14.2339 34.0735 14.2283 34.172 14.2703 34.1305C14.275 34.1253 14.2806 34.0266 14.2385 34.0682Z" fill="#AFC3B9"/>
<path d="M42.7454 34.0682C42.7407 34.0734 42.7351 34.1721 42.7772 34.1305C42.7818 34.1253 42.7874 34.0266 42.7454 34.0682Z" fill="#B5C9C1"/>
<path d="M14.2385 34.2552C14.2339 34.2605 14.2283 34.359 14.2703 34.3175C14.275 34.3124 14.2806 34.2137 14.2385 34.2552Z" fill="#CDDBD5"/>
<path d="M42.7139 34.1929V34.4733C42.7793 34.3281 42.7793 34.3382 42.7139 34.1929Z" fill="#D3DFDA"/>
<path d="M14.1448 34.4423C14.1401 34.4475 14.1345 34.546 14.1766 34.5045C14.1812 34.4994 14.1868 34.4007 14.1448 34.4423Z" fill="#BDCDC5"/>
<path d="M42.6526 34.5358C42.6479 34.541 42.6423 34.6395 42.6844 34.598C42.6891 34.5929 42.6947 34.4942 42.6526 34.5358Z" fill="#B5C9C1"/>
<path d="M14.1448 34.6293C14.1401 34.6345 14.1345 34.733 14.1766 34.6915C14.1812 34.6864 14.1868 34.5877 14.1448 34.6293Z" fill="#E1E9E7"/>
<path d="M61.346 34.6292C61.3413 34.6344 61.3357 34.7331 61.3777 34.6915C61.3824 34.6863 61.388 34.5877 61.346 34.6292Z" fill="#B5C7BF"/>
<path d="M0.28125 34.6602V35.0341C0.347612 34.8696 0.347612 34.8247 0.28125 34.6602Z" fill="#E7EDEB"/>
<path d="M14.0205 34.6602V34.9406C14.0859 34.7953 14.0859 34.8054 14.0205 34.6602Z" fill="#ADC3B9"/>
<path d="M42.6526 34.7225C42.6479 34.7278 42.6423 34.8263 42.6844 34.7848C42.6891 34.7796 42.6947 34.6809 42.6526 34.7225Z" fill="#D6DFDD"/>
<path d="M43.4934 34.7225C43.4887 34.7278 43.4831 34.8263 43.5252 34.7848C43.5299 34.7796 43.5355 34.6809 43.4934 34.7225Z" fill="#F5E9DD"/>
<path d="M42.5273 34.8472V35.1276C42.5928 34.9824 42.5928 34.9924 42.5273 34.8472Z" fill="#B5C7BF"/>
<path d="M47.6373 34.8785C47.5953 34.92 47.6943 34.9148 47.699 34.9097C47.7411 34.8681 47.642 34.8733 47.6373 34.8785Z" fill="#F1E3D6"/>
<path d="M48.1041 34.8785C48.0621 34.9201 48.1611 34.9148 48.1658 34.9097C48.2079 34.8681 48.1088 34.8733 48.1041 34.8785Z" fill="#EFDFD1"/>
<path d="M61.4387 34.9095C61.4341 34.9147 61.4284 35.0134 61.4705 34.9718C61.4752 34.9666 61.4808 34.868 61.4387 34.9095Z" fill="#B1C5BD"/>
<path d="M47.7617 34.9407C47.8786 35.0047 47.9066 35.0107 48.0421 35.0342C47.9253 34.9702 47.8972 34.9642 47.7617 34.9407Z" fill="#E7C7B0"/>
<path d="M44.1793 35.0652C44.1373 35.1068 44.2363 35.1016 44.241 35.0964C44.2831 35.0548 44.184 35.0601 44.1793 35.0652Z" fill="#E1BB9F"/>
<path d="M0.374023 35.1275V35.5013C0.440385 35.3369 0.440385 35.2919 0.374023 35.1275Z" fill="#C9D7D2"/>
<path d="M44.3658 35.1587C44.3238 35.2003 44.4229 35.1951 44.4275 35.1899C44.4696 35.1484 44.3705 35.1536 44.3658 35.1587Z" fill="#E1BDA0"/>
<path d="M15.7021 35.221V35.5948C15.7685 35.4304 15.7685 35.3854 15.7021 35.221Z" fill="#B7C9C1"/>
<path d="M42.4346 35.221V35.5014C42.5 35.3561 42.5 35.3662 42.4346 35.221Z" fill="#B1C7BC"/>
<path d="M44.5524 35.2522C44.5103 35.2938 44.6094 35.2886 44.6141 35.2835C44.6561 35.2419 44.557 35.2471 44.5524 35.2522Z" fill="#E1BDA3"/>
<path d="M44.7399 35.3457C44.6978 35.3873 44.7969 35.3821 44.8016 35.3769C44.8436 35.3354 44.7445 35.3406 44.7399 35.3457Z" fill="#E1BFA3"/>
<path d="M13.8327 35.408L13.7393 35.8753C13.8626 35.6953 13.8935 35.6168 13.8327 35.408Z" fill="#ABC1B7"/>
<path d="M44.9264 35.4392C44.8843 35.4808 44.9834 35.4756 44.9881 35.4704C45.0301 35.4289 44.9311 35.4341 44.9264 35.4392Z" fill="#E1BDA3"/>
<path d="M61.72 35.5638C61.7153 35.5691 61.7097 35.6676 61.7518 35.6261C61.7564 35.6209 61.762 35.5222 61.72 35.5638Z" fill="#C9D5D1"/>
<path d="M42.3713 35.7509C42.3667 35.756 42.3611 35.8547 42.4031 35.8131C42.4078 35.808 42.4134 35.7093 42.3713 35.7509Z" fill="#C6D5CF"/>
<path d="M0.466797 35.7818V36.0622C0.532224 35.9169 0.532224 35.927 0.466797 35.7818Z" fill="#C5D3CD"/>
<path d="M61.8128 35.8444C61.8081 35.8496 61.8025 35.9482 61.8445 35.9066C61.8492 35.9015 61.8548 35.8028 61.8128 35.8444Z" fill="#CBD9D3"/>
<path d="M42.2471 35.8753V36.1557C42.3125 36.0104 42.3125 36.0205 42.2471 35.8753Z" fill="#ADC3BB"/>
<path d="M61.9065 36.1246C61.9018 36.1298 61.8962 36.2285 61.9383 36.1869C61.9429 36.1817 61.9486 36.083 61.9065 36.1246Z" fill="#CFDBD7"/>
<path d="M0.560547 36.1558V36.4362C0.625974 36.2909 0.625974 36.301 0.560547 36.1558Z" fill="#C1D1CB"/>
<path d="M13.5833 36.3117C13.5786 36.3168 13.573 36.4155 13.615 36.3739C13.6197 36.3687 13.6253 36.2701 13.5833 36.3117Z" fill="#BBCDC5"/>
<path d="M61.9993 36.4052C61.9946 36.4103 61.989 36.509 62.031 36.4674C62.0357 36.4623 62.0413 36.3636 61.9993 36.4052Z" fill="#CFDBD7"/>
<path d="M15.5471 36.4984C15.5425 36.5036 15.5369 36.6023 15.5789 36.5607C15.5836 36.5554 15.5892 36.4568 15.5471 36.4984Z" fill="#DDE5E2"/>
<path d="M13.459 36.5296V36.81C13.5244 36.6647 13.5244 36.6748 13.459 36.5296Z" fill="#CDD9D5"/>
<path d="M0.65332 36.6231V36.9035C0.718748 36.7582 0.718748 36.7683 0.65332 36.6231Z" fill="#C1D1CB"/>
<path d="M62.094 36.6854C62.0893 36.6906 62.0837 36.7893 62.1258 36.7477C62.1304 36.7425 62.1361 36.6438 62.094 36.6854Z" fill="#CFDBD7"/>
<path d="M62.1868 36.9659C62.1821 36.9711 62.1765 37.0698 62.2185 37.0282C62.2232 37.0231 62.2288 36.9243 62.1868 36.9659Z" fill="#CDD9D5"/>
<path d="M15.4524 37.0594C15.4477 37.0646 15.4421 37.1633 15.4842 37.1217C15.4889 37.1166 15.4945 37.0179 15.4524 37.0594Z" fill="#DDE7E3"/>
<path d="M0.748047 37.0904V37.3708C0.813474 37.2255 0.813474 37.2356 0.748047 37.0904Z" fill="#BDCFC9"/>
<path d="M15.4219 37.1839V37.6512C15.4995 37.4615 15.4995 37.3737 15.4219 37.1839Z" fill="#A5BBB3"/>
<path d="M62.2805 37.2462C62.2759 37.2514 62.2702 37.3501 62.3123 37.3085C62.317 37.3033 62.3226 37.2046 62.2805 37.2462Z" fill="#BDCFC7"/>
<path d="M13.1787 37.2774V37.5578C13.2441 37.4125 13.2441 37.4226 13.1787 37.2774Z" fill="#DDE7E3"/>
<path d="M41.8108 37.3397C41.8061 37.3449 41.8005 37.4436 41.8426 37.402C41.8473 37.3967 41.8529 37.2981 41.8108 37.3397Z" fill="#CFDBD7"/>
<path d="M0.872324 37.5267C0.867651 37.5319 0.862051 37.6306 0.904111 37.589C0.908784 37.5838 0.914384 37.4851 0.872324 37.5267Z" fill="#C9D7D2"/>
<path d="M15.3596 37.5267C15.355 37.5319 15.3494 37.6306 15.3914 37.589C15.3961 37.5838 15.4017 37.4851 15.3596 37.5267Z" fill="#E3EBE7"/>
<path d="M62.3425 37.4641L62.249 37.7445C62.4145 37.653 62.4322 37.6303 62.3425 37.4641Z" fill="#BBCDC5"/>
<path d="M13.1165 37.6202C13.1118 37.6254 13.1062 37.7241 13.1483 37.6825C13.1529 37.6773 13.1585 37.5787 13.1165 37.6202Z" fill="#E1E9E7"/>
<path d="M15.3291 37.6511V38.025C15.3955 37.8606 15.3955 37.8156 15.3291 37.6511Z" fill="#A7BFB5"/>
<path d="M62.4362 37.6511L62.3428 37.8381H62.5297C62.5297 37.6649 62.5577 37.7119 62.4362 37.6511Z" fill="#D9E3E1"/>
<path d="M0.966074 37.807C0.961401 37.8121 0.955801 37.9109 0.997861 37.8693C1.00253 37.864 1.00813 37.7654 0.966074 37.807Z" fill="#BBCBC5"/>
<path d="M13.0227 37.807C13.018 37.8121 13.0124 37.9109 13.0545 37.8693C13.0592 37.864 13.0648 37.7654 13.0227 37.807Z" fill="#E1E7E5"/>
<path d="M15.2659 37.9005C15.2612 37.9057 15.2556 38.0044 15.2977 37.9628C15.3023 37.9575 15.3079 37.8589 15.2659 37.9005Z" fill="#E4EBE9"/>
<path d="M12.8984 37.9317V38.2121C12.9639 38.0668 12.9639 38.0769 12.8984 37.9317Z" fill="#D5E1DD"/>
<path d="M15.2659 38.0875C15.2612 38.0927 15.2556 38.1914 15.2977 38.1498C15.3023 38.1445 15.3079 38.0459 15.2659 38.0875Z" fill="#C5D5CD"/>
<path d="M1.05885 38.181C1.05417 38.1862 1.04857 38.2849 1.09063 38.2433C1.09531 38.2381 1.10091 38.1394 1.05885 38.181Z" fill="#B7CBC3"/>
<path d="M12.8362 38.2743C12.8315 38.2794 12.8259 38.3781 12.868 38.3365C12.8727 38.3314 12.8783 38.2327 12.8362 38.2743Z" fill="#E1E9E5"/>
<path d="M15.1731 38.3678C15.1684 38.3729 15.1628 38.4716 15.2049 38.43C15.2096 38.4248 15.2152 38.3263 15.1731 38.3678Z" fill="#D9E1DF"/>
<path d="M12.7424 38.4613C12.7378 38.4664 12.7322 38.5651 12.7742 38.5235C12.7789 38.5184 12.7845 38.4197 12.7424 38.4613Z" fill="#E1E9E5"/>
<path d="M60.0374 38.5548C60.0327 38.5599 60.0271 38.6587 60.0691 38.6171C60.0738 38.6119 60.0794 38.5132 60.0374 38.5548Z" fill="#E3BBA1"/>
<path d="M12.6487 38.6483C12.644 38.6535 12.6384 38.7522 12.6805 38.7106C12.6852 38.7053 12.6908 38.6067 12.6487 38.6483Z" fill="#E3E9E5"/>
<path d="M1.24537 38.7418C1.2407 38.747 1.2351 38.8457 1.27716 38.8041C1.28183 38.7988 1.28743 38.7002 1.24537 38.7418Z" fill="#B9CBC3"/>
<path d="M15.0794 38.7418C15.0747 38.747 15.0691 38.8457 15.1111 38.8041C15.1158 38.7989 15.1214 38.7002 15.0794 38.7418Z" fill="#D9E3DF"/>
<path d="M60.1301 38.7418C60.1255 38.747 60.1198 38.8457 60.1619 38.8041C60.1666 38.7989 60.1722 38.7002 60.1301 38.7418Z" fill="#E3BDA1"/>
<path d="M12.5559 38.8353C12.5512 38.8405 12.5456 38.9392 12.5877 38.8976C12.5924 38.8923 12.598 38.7937 12.5559 38.8353Z" fill="#E1E9E5"/>
<path d="M15.0479 38.8662V39.1466C15.1133 39.0014 15.1133 39.0115 15.0479 38.8662Z" fill="#B9CBC3"/>
<path d="M1.3401 39.0221C1.33542 39.0272 1.32982 39.1259 1.37188 39.0843C1.37656 39.0791 1.38216 38.9805 1.3401 39.0221Z" fill="#B9CBC3"/>
<path d="M12.4622 39.0221C12.4575 39.0272 12.4519 39.1259 12.494 39.0843C12.4986 39.0791 12.5042 38.9806 12.4622 39.0221Z" fill="#E1E9E5"/>
<path d="M60.3176 39.0221C60.313 39.0272 60.3073 39.1259 60.3494 39.0843C60.3541 39.0792 60.3597 38.9805 60.3176 39.0221Z" fill="#E5C3AB"/>
<path d="M12.3694 39.2091C12.3647 39.2142 12.3591 39.3129 12.4012 39.2713C12.4059 39.2661 12.4115 39.1676 12.3694 39.2091Z" fill="#E3EBE7"/>
<path d="M14.9856 39.2091C14.9809 39.2142 14.9753 39.3129 15.0174 39.2713C15.0221 39.2661 15.0277 39.1676 14.9856 39.2091Z" fill="#C6D5CF"/>
<path d="M40.9385 39.1468V39.4272C41.0039 39.2819 41.0039 39.292 40.9385 39.1468Z" fill="#DDE7E3"/>
<path d="M60.4114 39.2091C60.4067 39.2142 60.4011 39.3129 60.4432 39.2714C60.4478 39.2662 60.4535 39.1675 60.4114 39.2091Z" fill="#E5C5AC"/>
<path d="M14.8919 39.3961C14.8872 39.4012 14.8816 39.4999 14.9236 39.4583C14.9283 39.4531 14.9339 39.3546 14.8919 39.3961Z" fill="#E4EBE9"/>
<path d="M1.49512 39.5205V39.8009C1.56054 39.6557 1.56054 39.6658 1.49512 39.5205Z" fill="#E1E7E5"/>
<path d="M14.8919 39.5829C14.8872 39.588 14.8816 39.6867 14.9236 39.6451C14.9283 39.6399 14.9339 39.5414 14.8919 39.5829Z" fill="#BBCDC5"/>
<path d="M40.7835 39.5829C40.7788 39.588 40.7732 39.6867 40.8152 39.6451C40.8199 39.6399 40.8255 39.5413 40.7835 39.5829Z" fill="#DFE7E4"/>
<path d="M1.61939 39.7699C1.61472 39.775 1.60912 39.8737 1.65118 39.8321C1.65585 39.8269 1.66145 39.7284 1.61939 39.7699Z" fill="#BDCFC7"/>
<path d="M14.7676 39.7075V39.9879C14.833 39.8427 14.833 39.8528 14.7676 39.7075Z" fill="#CBD9D3"/>
<path d="M40.6887 39.7699C40.6841 39.775 40.6785 39.8737 40.7205 39.8321C40.7252 39.827 40.7308 39.7283 40.6887 39.7699Z" fill="#DFE7E4"/>
<path d="M1.71314 40.0502C1.70847 40.0553 1.70287 40.154 1.74493 40.1124C1.7496 40.1073 1.7552 40.0086 1.71314 40.0502Z" fill="#DFE7E4"/>
<path d="M14.6738 39.9878V40.2682C14.7393 40.123 14.7393 40.1331 14.6738 39.9878Z" fill="#D7E1DD"/>
<path d="M1.80689 40.2372C1.80222 40.2423 1.79662 40.341 1.83868 40.2994C1.84335 40.2943 1.84895 40.1956 1.80689 40.2372Z" fill="#DDE7E3"/>
<path d="M11.7141 40.3307C11.7094 40.3358 11.7038 40.4345 11.7459 40.3929C11.7506 40.3877 11.7562 40.2892 11.7141 40.3307Z" fill="#E4EBE9"/>
<path d="M14.5811 40.2683V40.5487C14.6465 40.4035 14.6465 40.4136 14.5811 40.2683Z" fill="#DBE3DF"/>
<path d="M1.90064 40.4242C1.89597 40.4293 1.89037 40.528 1.93243 40.4864C1.9371 40.4812 1.9427 40.3826 1.90064 40.4242Z" fill="#DDE7E3"/>
<path d="M61.0647 40.5177C61.06 40.5228 61.0544 40.6215 61.0965 40.5799C61.1012 40.5748 61.1068 40.4761 61.0647 40.5177Z" fill="#E3BFA5"/>
<path d="M1.96191 40.5486V40.829C2.02734 40.6838 2.02734 40.6939 1.96191 40.5486Z" fill="#D9E3DF"/>
<path d="M11.5276 40.6112C11.5229 40.6163 11.5173 40.715 11.5594 40.6735C11.5641 40.6683 11.5697 40.5696 11.5276 40.6112Z" fill="#E3EBE7"/>
<path d="M14.4873 40.5486V40.829C14.5527 40.6838 14.5527 40.6939 14.4873 40.5486Z" fill="#CFDBD7"/>
<path d="M61.1594 40.7045C61.1548 40.7096 61.1491 40.8083 61.1912 40.7667C61.1959 40.7616 61.2015 40.6629 61.1594 40.7045Z" fill="#E3BFA5"/>
<path d="M2.08717 40.8914C2.08249 40.8966 2.07689 40.9953 2.11895 40.9537C2.12363 40.9485 2.12923 40.8499 2.08717 40.8914Z" fill="#DDE7E3"/>
<path d="M11.3401 40.8914C11.3354 40.8966 11.3298 40.9953 11.3719 40.9537C11.3766 40.9485 11.3822 40.8499 11.3401 40.8914Z" fill="#E3E9E7"/>
<path d="M14.3936 40.8291V41.1095C14.459 40.9643 14.459 40.9744 14.3936 40.8291Z" fill="#CFDBD7"/>
<path d="M11.1536 41.172C11.1489 41.1771 11.1433 41.2758 11.1854 41.2342C11.19 41.2291 11.1956 41.1304 11.1536 41.172Z" fill="#DFE7E4"/>
<path d="M14.2998 41.1094V41.3898C14.3652 41.2446 14.3652 41.2546 14.2998 41.1094Z" fill="#BDCDC5"/>
<path d="M61.346 41.172C61.3413 41.1771 61.3357 41.2758 61.3777 41.2342C61.3824 41.2291 61.388 41.1304 61.346 41.172Z" fill="#E1BDA0"/>
<path d="M14.2385 41.3588C14.2339 41.3639 14.2283 41.4626 14.2703 41.421C14.275 41.4159 14.2806 41.3172 14.2385 41.3588Z" fill="#D9E3DF"/>
<path d="M10.8733 41.5458C10.8686 41.5509 10.863 41.6496 10.9051 41.608C10.9098 41.6028 10.9154 41.5042 10.8733 41.5458Z" fill="#DFE7E4"/>
<path d="M14.1448 41.6393C14.1401 41.6444 14.1345 41.7431 14.1766 41.7015C14.1812 41.6964 14.1868 41.5977 14.1448 41.6393Z" fill="#B5C9C1"/>
<path d="M14.051 41.8263C14.0464 41.8314 14.0408 41.9301 14.0828 41.8885C14.0875 41.8834 14.0931 41.7847 14.051 41.8263Z" fill="#D1DFD9"/>
<path d="M2.74146 42.0131C2.73679 42.0182 2.73119 42.1169 2.77325 42.0753C2.77793 42.0701 2.78352 41.9715 2.74146 42.0131Z" fill="#C8D7CF"/>
<path d="M13.9573 42.1066C13.9526 42.1117 13.947 42.2104 13.9891 42.1688C13.9937 42.1636 13.9993 42.065 13.9573 42.1066Z" fill="#B1C5BF"/>
<path d="M61.72 42.1066C61.7153 42.1118 61.7097 42.2103 61.7518 42.1688C61.7564 42.1637 61.762 42.065 61.72 42.1066Z" fill="#E9CFB9"/>
<path d="M61.8128 42.3871C61.8081 42.3923 61.8025 42.4909 61.8445 42.4493C61.8492 42.4442 61.8548 42.3455 61.8128 42.3871Z" fill="#E9CFBB"/>
<path d="M3.02174 42.4803C3.01706 42.4855 3.01146 42.5842 3.05353 42.5426C3.0582 42.5373 3.0638 42.4388 3.02174 42.4803Z" fill="#D1DDD8"/>
<path d="M13.7708 42.5738C13.7661 42.579 13.7605 42.6777 13.8025 42.6361C13.8072 42.631 13.8128 42.5322 13.7708 42.5738Z" fill="#B1C5BD"/>
<path d="M13.677 42.7609C13.6723 42.766 13.6667 42.8647 13.7088 42.8231C13.7135 42.818 13.7191 42.7193 13.677 42.7609Z" fill="#AFC5BB"/>
<path d="M61.9065 42.7609C61.9018 42.766 61.8962 42.8647 61.9383 42.8231C61.9429 42.818 61.9486 42.7193 61.9065 42.7609Z" fill="#E2C1A5"/>
<path d="M13.5833 42.9479C13.5786 42.953 13.573 43.0517 13.615 43.0101C13.6197 43.0049 13.6253 42.9063 13.5833 42.9479Z" fill="#B1C7BC"/>
<path d="M61.9993 43.0411C61.9946 43.0463 61.989 43.145 62.031 43.1034C62.0357 43.0982 62.0413 42.9995 61.9993 43.0411Z" fill="#EBD3BD"/>
<path d="M13.4905 43.1346C13.4858 43.1398 13.4802 43.2385 13.5223 43.1969C13.5269 43.1917 13.5325 43.093 13.4905 43.1346Z" fill="#B1C7BC"/>
<path d="M42.0921 43.1346C42.0874 43.1398 42.0818 43.2385 42.1238 43.1969C42.1285 43.1917 42.1341 43.093 42.0921 43.1346Z" fill="#DFB99A"/>
<path d="M3.48853 43.2281C3.48386 43.2333 3.47826 43.332 3.52032 43.2904C3.525 43.2852 3.5306 43.1866 3.48853 43.2281Z" fill="#CDDBD5"/>
<path d="M13.3652 43.2593V43.5397C13.4307 43.3945 13.4307 43.4045 13.3652 43.2593Z" fill="#B5C7BF"/>
<path d="M41.9046 43.4152C41.8999 43.4203 41.8943 43.519 41.9363 43.4774C41.941 43.4722 41.9466 43.3736 41.9046 43.4152Z" fill="#DFB99A"/>
<path d="M62.094 43.4152C62.0893 43.4203 62.0837 43.519 62.1258 43.4774C62.1304 43.4723 62.1361 43.3736 62.094 43.4152Z" fill="#EBD7C5"/>
<path d="M3.86256 43.7889C3.85788 43.7941 3.85229 43.8928 3.89435 43.8512C3.89902 43.846 3.90462 43.7473 3.86256 43.7889Z" fill="#D7E1DD"/>
<path d="M62.1553 43.7266V44.007C62.2207 43.8617 62.2207 43.8717 62.1553 43.7266Z" fill="#EFDDCF"/>
<path d="M4.05006 44.0695C4.04538 44.0746 4.03979 44.1733 4.08185 44.1317C4.08652 44.1266 4.09212 44.0279 4.05006 44.0695Z" fill="#D6E1DB"/>
<path d="M62.249 44.1939V44.4743C62.3145 44.329 62.3145 44.339 62.249 44.1939Z" fill="#F1E1D5"/>
<path d="M41.344 44.3497C41.3393 44.3548 41.3337 44.4535 41.3758 44.4119C41.3805 44.4067 41.3861 44.3082 41.344 44.3497Z" fill="#DFBA9D"/>
<path d="M41.2503 44.5367C41.2456 44.5419 41.24 44.6406 41.282 44.599C41.2867 44.5938 41.2923 44.4951 41.2503 44.5367Z" fill="#DFB99A"/>
<path d="M62.249 44.4744V44.8483C62.3154 44.6838 62.3154 44.6388 62.249 44.4744Z" fill="#E3BDA1"/>
<path d="M41.1565 44.7237C41.1518 44.7289 41.1462 44.8276 41.1883 44.786C41.193 44.7809 41.1986 44.6822 41.1565 44.7237Z" fill="#DFB99A"/>
<path d="M12.6487 44.8172C12.644 44.8224 12.6384 44.9211 12.6805 44.8795C12.6852 44.8742 12.6908 44.7757 12.6487 44.8172Z" fill="#B5C9C1"/>
<path d="M62.3428 44.8482V45.6894C62.4605 45.4095 62.4605 45.128 62.3428 44.8482Z" fill="#E5C5AC"/>
<path d="M12.5559 45.004C12.5512 45.0092 12.5456 45.1079 12.5877 45.0663C12.5924 45.061 12.598 44.9624 12.5559 45.004Z" fill="#B5C9C1"/>
<path d="M40.97 45.0975C40.9653 45.1027 40.9597 45.2014 41.0018 45.1598C41.0064 45.1545 41.012 45.0559 40.97 45.0975Z" fill="#EBD3BD"/>
<path d="M12.4622 45.191C12.4575 45.1961 12.4519 45.2948 12.494 45.2533C12.4986 45.248 12.5042 45.1495 12.4622 45.191Z" fill="#B5C9C1"/>
<path d="M40.97 45.2845C40.9653 45.2897 40.9597 45.3884 41.0018 45.3468C41.0064 45.3416 41.012 45.2429 40.97 45.2845Z" fill="#DFB99A"/>
<path d="M12.3681 45.378C12.3635 45.3832 12.3579 45.4819 12.3999 45.4403C12.4046 45.435 12.4102 45.3365 12.3681 45.378ZM12.2747 45.565C12.27 45.5701 12.2644 45.6688 12.3065 45.6272C12.3111 45.6221 12.3167 45.5234 12.2747 45.565Z" fill="#B5C7BF"/>
<path d="M40.7835 45.7518C40.7788 45.757 40.7732 45.8557 40.8152 45.8141C40.8199 45.8089 40.8255 45.7102 40.7835 45.7518Z" fill="#EDD7C7"/>
<path d="M62.3428 45.6895V47.2784C62.5185 46.859 62.5185 46.1089 62.3428 45.6895Z" fill="#DBAF8F"/>
<path d="M11.9954 46.0321C11.9907 46.0372 11.9851 46.1359 12.0272 46.0943C12.0318 46.0891 12.0374 45.9905 11.9954 46.0321Z" fill="#B3C7BF"/>
<path d="M40.6582 46.0633V46.6241C40.747 46.4105 40.747 46.2768 40.6582 46.0633Z" fill="#E5C3AB"/>
<path d="M62.4365 46.0633V46.811C62.5449 46.5521 62.5449 46.3222 62.4365 46.0633Z" fill="#F3E7DD"/>
<path d="M11.9006 46.2191C11.896 46.2242 11.8904 46.3229 11.9324 46.2814C11.9371 46.2762 11.9427 46.1775 11.9006 46.2191Z" fill="#B3C7BF"/>
<path d="M11.8074 46.4061C11.8027 46.4113 11.7971 46.51 11.8392 46.4684C11.8439 46.4632 11.8495 46.3645 11.8074 46.4061ZM5.70117 46.4372C5.81801 46.5013 5.84605 46.5072 5.98157 46.5307C5.86474 46.4667 5.8367 46.4607 5.70117 46.4372Z" fill="#B1C5BD"/>
<path d="M40.5654 46.624V48.3065C40.7477 47.8717 40.7477 47.0588 40.5654 46.624Z" fill="#EBD3C1"/>
<path d="M11.5276 46.8734C11.5229 46.8785 11.5173 46.9772 11.5594 46.9356C11.5641 46.9305 11.5697 46.8318 11.5276 46.8734Z" fill="#B3C5BD"/>
<path d="M11.4336 47.0604C11.4289 47.0656 11.4233 47.1643 11.4654 47.1227C11.47 47.1174 11.4756 47.0188 11.4336 47.0604ZM11.3401 47.2474C11.3354 47.2525 11.3298 47.3512 11.3719 47.3096C11.3766 47.3045 11.3822 47.2058 11.3401 47.2474Z" fill="#B3C7BD"/>
<path d="M62.3428 47.2783V47.8391C62.4316 47.6256 62.4316 47.4919 62.3428 47.2783Z" fill="#E5C5AC"/>
<path d="M11.0293 47.6521C11.0676 47.8476 11.0499 47.8409 11.2162 47.9325C11.1517 47.8027 11.1246 47.7587 11.0293 47.6521Z" fill="#BBCDC5"/>
<path d="M48.4782 47.8704C48.4361 47.912 48.5352 47.9068 48.5398 47.9016C48.5819 47.8601 48.4828 47.8652 48.4782 47.8704Z" fill="#E5C7AF"/>
<path d="M62.249 47.8391V48.4934C62.3481 48.2566 62.3481 48.076 62.249 47.8391Z" fill="#DDB797"/>
<path d="M11.278 47.9639C11.2359 48.0055 11.335 48.0003 11.3396 47.9951C11.3817 47.9535 11.2826 47.9588 11.278 47.9639Z" fill="#AFC5BB"/>
<path d="M48.4155 47.9326C48.3332 48.1293 48.3174 48.1899 48.322 48.4C48.4454 48.22 48.4763 48.1414 48.4155 47.9326Z" fill="#F7EFE9"/>
<path d="M11.4655 48.0572C11.4234 48.0987 11.5225 48.0935 11.5271 48.0884C11.5692 48.0468 11.4701 48.052 11.4655 48.0572Z" fill="#BBCDC5"/>
<path d="M11.7457 48.1507C11.7037 48.1923 11.8027 48.187 11.8074 48.1819C11.8495 48.1403 11.7504 48.1455 11.7457 48.1507Z" fill="#AFC3BB"/>
<path d="M11.9332 48.2442C11.8912 48.2858 11.9902 48.2805 11.9949 48.2754C12.037 48.2338 11.9379 48.239 11.9332 48.2442Z" fill="#B1C5BB"/>
<path d="M12.1198 48.3377C12.0777 48.3793 12.1768 48.374 12.1814 48.3689C12.2235 48.3273 12.1244 48.3325 12.1198 48.3377Z" fill="#B1C5BD"/>
<path d="M40.5654 48.3064V48.6803C40.6318 48.5159 40.6318 48.4708 40.5654 48.3064Z" fill="#F9EFE9"/>
<path d="M40.6582 48.3064V48.7737C40.7358 48.5839 40.7358 48.4962 40.6582 48.3064Z" fill="#DFBA9D"/>
<path d="M12.2441 48.3999C12.361 48.4639 12.389 48.4699 12.5245 48.4934C12.4077 48.4294 12.3797 48.4234 12.2441 48.3999Z" fill="#C6D5CF"/>
<path d="M32.4957 48.4312C32.4537 48.4728 32.5527 48.4675 32.5574 48.4624C32.5995 48.4208 32.5004 48.426 32.4957 48.4312Z" fill="#E3EBE7"/>
<path d="M12.5865 48.5247C12.5445 48.5663 12.6436 48.561 12.6482 48.5559C12.6903 48.5144 12.5912 48.5195 12.5865 48.5247Z" fill="#B1C5BD"/>
<path d="M12.774 48.6182C12.732 48.6598 12.8311 48.6545 12.8357 48.6494C12.8778 48.6078 12.7787 48.6131 12.774 48.6182Z" fill="#B1C7BC"/>
<path d="M12.9606 48.7114C12.9185 48.753 13.0176 48.7478 13.0223 48.7427C13.0643 48.7011 12.9652 48.7063 12.9606 48.7114Z" fill="#B1C5BD"/>
<path d="M13.1481 48.805C13.106 48.8465 13.2051 48.8413 13.2098 48.8362C13.2518 48.7946 13.1527 48.7998 13.1481 48.805Z" fill="#CFDBD7"/>
<path d="M40.6582 48.7739V49.0543C40.7236 48.9091 40.7236 48.9192 40.6582 48.7739Z" fill="#E9D1BF"/>
<path d="M62.1553 48.7739V49.0543C62.2207 48.9091 62.2207 48.9192 62.1553 48.7739Z" fill="#E9CFB9"/>
<path d="M14.0826 49.179C14.0406 49.2206 14.1397 49.2153 14.1443 49.2102C14.1864 49.1686 14.0873 49.1738 14.0826 49.179Z" fill="#C3D5CC"/>
<path d="M62.094 49.3036C62.0893 49.3087 62.0837 49.4074 62.1258 49.3658C62.1304 49.3607 62.1361 49.262 62.094 49.3036Z" fill="#E9D1BB"/>
<path d="M14.5504 49.3657C14.5084 49.4073 14.6074 49.4021 14.6121 49.3969C14.6542 49.3554 14.5551 49.3606 14.5504 49.3657Z" fill="#C3D5CF"/>
<path d="M30.9069 49.3657C30.8648 49.4073 30.9639 49.4021 30.9685 49.397C31.0106 49.3554 30.9115 49.3606 30.9069 49.3657Z" fill="#D9E1DF"/>
<path d="M14.9551 49.5215C15.0719 49.5855 15.1 49.5915 15.2355 49.615C15.1186 49.5509 15.0906 49.545 14.9551 49.5215Z" fill="#AFC5BB"/>
<path d="M47.2937 49.5215C47.2011 49.6596 47.2002 49.6339 47.2002 49.8019C47.3208 49.667 47.331 49.6867 47.2937 49.5215Z" fill="#F9EFE9"/>
<path d="M61.9993 49.6773C61.9946 49.6825 61.989 49.7812 62.031 49.7396C62.0357 49.7345 62.0413 49.6358 61.9993 49.6773Z" fill="#F1E1D2"/>
<path d="M15.4219 49.7085C15.5387 49.7725 15.5667 49.7785 15.7023 49.802C15.5854 49.738 15.5574 49.732 15.4219 49.7085Z" fill="#B3C7BD"/>
<path d="M40.8762 49.7709C40.8716 49.776 40.866 49.8747 40.908 49.8331C40.9127 49.828 40.9183 49.7293 40.8762 49.7709Z" fill="#EBD3C1"/>
<path d="M15.7021 49.802C15.819 49.866 15.847 49.872 15.9826 49.8955C15.8657 49.8315 15.8377 49.8255 15.7021 49.802Z" fill="#B3C7BD"/>
<path d="M29.8785 49.9265C29.8365 49.9681 29.9355 49.9629 29.9402 49.9578C29.9823 49.9162 29.8832 49.9214 29.8785 49.9265Z" fill="#DDE7E3"/>
<path d="M40.97 49.9579C40.9653 49.963 40.9597 50.0617 41.0018 50.0201C41.0064 50.015 41.012 49.9163 40.97 49.9579Z" fill="#DFB99A"/>
<path d="M16.233 50.02C16.191 50.0616 16.29 50.0564 16.2947 50.0513C16.3368 50.0097 16.2377 50.0149 16.233 50.02Z" fill="#C3D5CC"/>
<path d="M29.692 50.02C29.65 50.0616 29.749 50.0564 29.7537 50.0512C29.7958 50.0097 29.6967 50.0149 29.692 50.02Z" fill="#DDE7E3"/>
<path d="M16.4502 50.0823C16.567 50.1463 16.5951 50.1523 16.7306 50.1758C16.6138 50.1117 16.5857 50.1058 16.4502 50.0823Z" fill="#B7C9C3"/>
<path d="M29.5045 50.1135C29.4625 50.1551 29.5615 50.1499 29.5662 50.1448C29.6083 50.1032 29.5092 50.1084 29.5045 50.1135Z" fill="#DDE7E3"/>
<path d="M40.97 50.1449C40.9653 50.15 40.9597 50.2487 41.0018 50.2071C41.0064 50.2019 41.012 50.1033 40.97 50.1449Z" fill="#EDD3BF"/>
<path d="M16.7305 50.1758C16.8473 50.2398 16.8753 50.2458 17.0109 50.2693C16.894 50.2052 16.866 50.1993 16.7305 50.1758Z" fill="#B1C5BD"/>
<path d="M29.318 50.2071C29.2759 50.2486 29.375 50.2434 29.3797 50.2383C29.4217 50.1967 29.3227 50.2019 29.318 50.2071Z" fill="#DFE7E4"/>
<path d="M41.0322 50.2693V50.5497C41.0977 50.4045 41.0977 50.4146 41.0322 50.2693Z" fill="#E2C1A5"/>
<path d="M17.1045 50.3628C17.2213 50.4268 17.2494 50.4328 17.3849 50.4563C17.2681 50.3923 17.24 50.3863 17.1045 50.3628Z" fill="#C9D7D2"/>
<path d="M28.9746 50.3628V56.6251C29.1597 56.184 29.0681 55.6045 29.0681 55.1297V52.0452C29.0681 51.52 29.1793 50.8504 28.9746 50.3628Z" fill="#BFCFC8"/>
<path d="M17.3848 50.4563C17.5016 50.5203 17.5296 50.5263 17.6652 50.5498C17.5483 50.4858 17.5203 50.4798 17.3848 50.4563Z" fill="#CDDBD5"/>
<path d="M17.665 50.5498C17.7819 50.6138 17.8099 50.6198 17.9454 50.6433C17.8286 50.5793 17.8006 50.5733 17.665 50.5498Z" fill="#C6D5CF"/>
<path d="M41.1565 50.6122C41.1518 50.6173 41.1462 50.716 41.1883 50.6744C41.193 50.6692 41.1986 50.5706 41.1565 50.6122Z" fill="#E1BB9F"/>
<path d="M17.9453 50.6431C18.0621 50.7071 18.0902 50.7131 18.2257 50.7365C18.1089 50.6725 18.0808 50.6665 17.9453 50.6431Z" fill="#C9D7D2"/>
<path d="M47.4192 50.7057C47.4145 50.7108 47.4089 50.8095 47.451 50.7679C47.4557 50.7628 47.4613 50.6641 47.4192 50.7057Z" fill="#E7C9B1"/>
<path d="M18.2256 50.7366C18.3424 50.8006 18.3705 50.8066 18.506 50.8301C18.3892 50.766 18.3611 50.76 18.2256 50.7366Z" fill="#C9D7D2"/>
<path d="M18.5068 50.8301C18.6237 50.8941 18.6517 50.9001 18.7872 50.9236C18.6704 50.8595 18.6424 50.8536 18.5068 50.8301Z" fill="#CDD9D5"/>
<path d="M26.0771 50.8301C26.2688 50.9118 26.4277 50.9192 26.638 50.9236C26.4463 50.8419 26.2875 50.8345 26.0771 50.8301Z" fill="#B9CDC3"/>
<path d="M41.2503 50.8924C41.2456 50.8976 41.24 50.9963 41.282 50.9547C41.2867 50.9495 41.2923 50.8508 41.2503 50.8924Z" fill="#E1BDA0"/>
<path d="M18.7861 50.9236C18.903 50.9876 18.931 50.9936 19.0665 51.0171C18.9497 50.953 18.9217 50.9471 18.7861 50.9236Z" fill="#CDDBD5"/>
<path d="M25.3291 50.9236C25.5731 51.0262 25.8114 51.0164 26.0768 51.0171C25.8329 50.9144 25.5945 50.9243 25.3291 50.9236Z" fill="#DFE9E5"/>
<path d="M26.5449 50.9236V51.3909C26.6225 51.2012 26.6225 51.1133 26.5449 50.9236Z" fill="#DDE7E3"/>
<path d="M26.6377 50.9236V66.0653C26.8031 65.6718 26.7312 65.1811 26.7312 64.7568V62.2332V54.3819V52.1387C26.7312 51.7405 26.7929 51.2936 26.6377 50.9236Z" fill="#A5BDB3"/>
<path d="M26.7314 50.9236V66.0653C26.8866 65.6952 26.8249 65.2484 26.8249 64.8503V62.607V54.7558V52.2321C26.8249 51.8082 26.8969 51.3176 26.7314 50.9236Z" fill="#8DAB9D"/>
<path d="M19.0674 51.0171C19.1842 51.0811 19.2123 51.0871 19.3478 51.1106C19.231 51.0465 19.2029 51.0406 19.0674 51.0171Z" fill="#CFDDD7"/>
<path d="M24.208 51.0171C24.3734 51.0899 24.4921 51.1023 24.6753 51.1106C24.5099 51.0378 24.3912 51.0253 24.208 51.0171Z" fill="#BFCFC8"/>
<path d="M24.6758 51.0171C24.8674 51.0988 25.0263 51.1062 25.2366 51.1106C25.045 51.0289 24.8861 51.0215 24.6758 51.0171Z" fill="#E1E9E7"/>
<path d="M47.2317 51.0795C47.227 51.0846 47.2214 51.1833 47.2635 51.1417C47.2682 51.1365 47.2738 51.0379 47.2317 51.0795Z" fill="#EAD1BD"/>
<path d="M19.3477 51.1106C19.4645 51.1746 19.4925 51.1806 19.6281 51.2041C19.5112 51.1401 19.4832 51.1341 19.3477 51.1106Z" fill="#D3DDD9"/>
<path d="M23.3672 51.1106C23.5083 51.1745 23.5831 51.1878 23.7411 51.2041C23.5999 51.1402 23.5251 51.1269 23.3672 51.1106Z" fill="#C3D3CC"/>
<path d="M19.6901 51.2351C19.648 51.2767 19.7471 51.2715 19.7517 51.2663C19.7938 51.2248 19.6947 51.23 19.6901 51.2351Z" fill="#D5DFDB"/>
<path d="M22.6191 51.2039C22.7603 51.2677 22.8351 51.2811 22.993 51.2973C22.8519 51.2335 22.7771 51.2201 22.6191 51.2039Z" fill="#C5D3CF"/>
<path d="M19.9713 51.3286C19.9293 51.3702 20.0283 51.365 20.033 51.3599C20.0751 51.3183 19.976 51.3235 19.9713 51.3286Z" fill="#CDDBD5"/>
<path d="M20.0947 51.2974V57.4662C20.2798 57.0251 20.1882 56.4456 20.1882 55.9708V52.9798C20.1882 52.4546 20.2994 51.7849 20.0947 51.2974Z" fill="#A5BBB1"/>
<path d="M22.4326 51.2974V66.0653C22.5981 65.6718 22.5261 65.181 22.5261 64.7567V62.3265V54.6622V52.5125C22.5261 52.1143 22.5878 51.6674 22.4326 51.2974Z" fill="#9DB5AB"/>
<path d="M22.5254 51.2974V66.1587C22.6908 65.7643 22.6189 65.2745 22.6189 64.8502V62.42V54.6622V52.5125C22.6189 52.1143 22.6805 51.6674 22.5254 51.2974Z" fill="#D3DFDA"/>
<path d="M41.344 51.3599C41.3393 51.3651 41.3337 51.4638 41.3758 51.4222C41.3805 51.417 41.3861 51.3184 41.344 51.3599Z" fill="#F5E9DF"/>
<path d="M47.1389 51.36C47.1343 51.3651 47.1287 51.4638 47.1707 51.4222C47.1754 51.4171 47.181 51.3184 47.1389 51.36Z" fill="#E5C9B1"/>
<path d="M20.002 51.3909V66.0653C20.1468 65.7195 20.0954 65.3157 20.0954 64.9437V62.7939V55.1296V52.6994C20.0954 52.2755 20.1674 51.7849 20.002 51.3909Z" fill="#F5F7F5"/>
<path d="M26.5449 51.3909V66.1588C26.7104 65.7653 26.6384 65.2746 26.6384 64.8502V62.4201V54.7557V52.606C26.6384 52.2078 26.7001 51.7609 26.5449 51.3909Z" fill="#EFF5F3"/>
<path d="M47.0452 51.5467C47.0405 51.5519 47.0349 51.6506 47.077 51.609C47.0816 51.6038 47.0872 51.5051 47.0452 51.5467Z" fill="#E5C7AF"/>
<path d="M41.5 51.6714V51.9518C41.5654 51.8066 41.5654 51.8167 41.5 51.6714Z" fill="#EDD9C9"/>
<path d="M46.9209 51.6714V51.9518C46.9863 51.8066 46.9863 51.8167 46.9209 51.6714Z" fill="#E7CDB7"/>
<path d="M46.8577 52.014C46.853 52.0192 46.8474 52.1179 46.8895 52.0763C46.8941 52.0711 46.8997 51.9724 46.8577 52.014Z" fill="#E7C9B3"/>
<path d="M41.6865 52.1387V52.4191C41.752 52.2738 41.752 52.2839 41.6865 52.1387Z" fill="#EDD9C9"/>
<path d="M41.873 52.606V52.8864C41.9385 52.7411 41.9385 52.7512 41.873 52.606Z" fill="#EDD7C7"/>
<path d="M41.9973 52.9488C41.9927 52.9539 41.9871 53.0527 42.0291 53.0111C42.0338 53.0058 42.0394 52.9073 41.9973 52.9488ZM42.0908 53.1357C42.0861 53.1409 42.0805 53.2396 42.1226 53.198C42.1273 53.1929 42.1329 53.0941 42.0908 53.1357Z" fill="#F5E7DC"/>
<path d="M42.1848 53.3226C42.1802 53.3278 42.1746 53.4265 42.2166 53.3849C42.2213 53.3797 42.2269 53.281 42.1848 53.3226Z" fill="#F1DFD2"/>
<path d="M42.2786 53.5096C42.2739 53.5148 42.2683 53.6135 42.3104 53.5719C42.315 53.5667 42.3206 53.468 42.2786 53.5096Z" fill="#EBCFBB"/>
<path d="M42.3713 53.7899C42.3667 53.795 42.3611 53.8937 42.4031 53.8521C42.4078 53.847 42.4134 53.7483 42.3713 53.7899Z" fill="#F5E7DC"/>
<path d="M42.5588 54.1639C42.5542 54.1691 42.5486 54.2678 42.5906 54.2262C42.5953 54.221 42.6009 54.1223 42.5588 54.1639Z" fill="#EBD3C1"/>
<path d="M42.6526 54.3509C42.6479 54.356 42.6423 54.4548 42.6844 54.4132C42.6891 54.4079 42.6947 54.3094 42.6526 54.3509Z" fill="#E5C9B1"/>
<path d="M42.7454 54.6312C42.7407 54.6364 42.7351 54.7351 42.7772 54.6935C42.7818 54.6882 42.7874 54.5896 42.7454 54.6312Z" fill="#F3E5DB"/>
<path d="M42.8086 54.7559C42.9002 54.9225 42.8936 54.9049 43.089 54.9428C42.9824 54.8478 42.9385 54.8205 42.8086 54.7559Z" fill="#EFDFD1"/>
<path d="M44.8958 55.7528C44.8911 55.7579 44.8855 55.8566 44.9275 55.815C44.9322 55.8099 44.9378 55.7112 44.8958 55.7528Z" fill="#E5C9B1"/>
<path d="M44.802 56.0333C44.7973 56.0384 44.7917 56.1372 44.8338 56.0956C44.8385 56.0904 44.8441 55.9917 44.802 56.0333Z" fill="#E1BDA0"/>
<path d="M56.7975 56.4693C56.7554 56.5108 56.8545 56.5056 56.8592 56.5005C56.9012 56.4589 56.8022 56.4641 56.7975 56.4693Z" fill="#F1DFD2"/>
<path d="M28.9746 56.625V66.1587C29.2363 65.5343 29.0681 64.5899 29.0681 63.9155V59.0552C29.0681 58.3314 29.255 57.2941 28.9746 56.625Z" fill="#CFDBD7"/>
<path d="M56.5162 56.6563C56.4742 56.6979 56.5733 56.6926 56.5779 56.6875C56.62 56.6459 56.5209 56.6511 56.5162 56.6563Z" fill="#EFE1D3"/>
<path d="M46.0485 56.7498C46.0064 56.7914 46.1055 56.7861 46.1101 56.781C46.1522 56.7394 46.0531 56.7446 46.0485 56.7498Z" fill="#DFB99A"/>
<path d="M56.2369 56.8433C56.1949 56.8849 56.294 56.8796 56.2986 56.8745C56.3407 56.8329 56.2416 56.8381 56.2369 56.8433Z" fill="#F1E1D2"/>
<path d="M46.4225 56.9368C46.3804 56.9784 46.4795 56.9731 46.4842 56.968C46.5262 56.9264 46.4272 56.9316 46.4225 56.9368Z" fill="#E5C5AC"/>
<path d="M46.609 57.03C46.567 57.0716 46.666 57.0664 46.6707 57.0613C46.7128 57.0197 46.6137 57.0249 46.609 57.03Z" fill="#E5C7AD"/>
<path d="M46.7965 57.1236C46.7545 57.1651 46.8535 57.1599 46.8582 57.1548C46.9003 57.1132 46.8012 57.1184 46.7965 57.1236Z" fill="#E5C5AC"/>
<path d="M55.7692 57.1236C55.7271 57.1651 55.8262 57.1599 55.8308 57.1548C55.8729 57.1132 55.7738 57.1184 55.7692 57.1236Z" fill="#F1E3D6"/>
<path d="M46.983 57.2171C46.941 57.2587 47.04 57.2534 47.0447 57.2483C47.0868 57.2067 46.9877 57.2119 46.983 57.2171Z" fill="#E5C5AF"/>
<path d="M47.1696 57.3106C47.1275 57.3522 47.2266 57.3469 47.2312 57.3418C47.2733 57.3002 47.1742 57.3054 47.1696 57.3106Z" fill="#E5C5AF"/>
<path d="M47.3571 57.4041C47.315 57.4456 47.4141 57.4404 47.4187 57.4353C47.4608 57.3938 47.3617 57.3989 47.3571 57.4041Z" fill="#E5C7AF"/>
<path d="M55.3024 57.4041C55.2603 57.4457 55.3594 57.4404 55.3641 57.4353C55.4061 57.3937 55.307 57.3989 55.3024 57.4041Z" fill="#F3E5DB"/>
<path d="M20.0947 57.4663V66.1588H22.5249C21.8772 65.8868 20.8892 66.0653 20.1882 66.0653V60.0834C20.1882 59.3103 20.3948 58.1803 20.0947 57.4663Z" fill="#B5C9C1"/>
<path d="M47.5436 57.4976C47.5015 57.5392 47.6006 57.5339 47.6053 57.5288C47.6473 57.4872 47.5483 57.4924 47.5436 57.4976Z" fill="#E5C7AF"/>
<path d="M55.1149 57.4976C55.0728 57.5392 55.1719 57.5339 55.1766 57.5288C55.2186 57.4872 55.1195 57.4924 55.1149 57.4976Z" fill="#E7CDB7"/>
<path d="M54.8346 57.6843C54.7925 57.7259 54.8916 57.7207 54.8963 57.7156C54.9383 57.674 54.8393 57.6792 54.8346 57.6843Z" fill="#F5E7DC"/>
<path d="M54.6471 57.7778C54.605 57.8194 54.7041 57.8142 54.7088 57.8091C54.7508 57.7675 54.6518 57.7727 54.6471 57.7778Z" fill="#E9CDB8"/>
<path d="M48.6035 58.0271V58.9618C48.7297 58.662 48.7297 58.3269 48.6035 58.0271Z" fill="#E1BDA0"/>
<path d="M54.1803 58.0584C54.1382 58.1 54.2373 58.0947 54.242 58.0896C54.284 58.048 54.185 58.0532 54.1803 58.0584Z" fill="#E9D1BF"/>
<path d="M50.1914 58.1205C50.5372 58.2655 50.941 58.2139 51.313 58.2139C50.9672 58.069 50.5634 58.1205 50.1914 58.1205Z" fill="#DFB595"/>
<path d="M50.8467 58.2141C51.1168 58.3275 51.3953 58.3074 51.6879 58.3076C51.4178 58.1942 51.1392 58.2143 50.8467 58.2141Z" fill="#EFDDCF"/>
<path d="M51.6875 58.2141C51.9315 58.3168 52.1698 58.3069 52.4352 58.3076C52.1913 58.205 51.9529 58.2148 51.6875 58.2141Z" fill="#E9CFB9"/>
<path d="M52.4346 58.3076V59.0554C52.543 58.7965 52.543 58.5665 52.4346 58.3076Z" fill="#DBAF8F"/>
<path d="M53.8369 58.4944V60.3637C54.0323 59.8989 54.0323 58.9592 53.8369 58.4944Z" fill="#EDD5C3"/>
<path d="M48.6035 58.9617V59.8029C48.7213 59.523 48.7213 59.2415 48.6035 58.9617Z" fill="#E9CFB9"/>
<path d="M50.0986 58.9617V59.429C50.1762 59.2393 50.1762 59.1514 50.0986 58.9617Z" fill="#EDD9C9"/>
<path d="M52.4346 59.0552V59.5225C52.5121 59.3328 52.5121 59.2449 52.4346 59.0552Z" fill="#E5C7AF"/>
<path d="M50.0986 59.4292V60.4574C50.2323 60.1386 50.2323 59.7479 50.0986 59.4292Z" fill="#F9F5EF"/>
<path d="M52.4346 59.5227V60.0835C52.5234 59.8699 52.5234 59.7363 52.4346 59.5227Z" fill="#EFDBCD"/>
<path d="M48.6035 59.803V60.4573C48.7026 60.2204 48.7026 60.0398 48.6035 59.803Z" fill="#F1E1D5"/>
<path d="M50.0049 60.1768V60.7376C50.0937 60.524 50.0937 60.3903 50.0049 60.1768Z" fill="#EBD3C3"/>
<path d="M53.7432 60.3638V61.1115C53.8516 60.8526 53.8516 60.6227 53.7432 60.3638Z" fill="#E3C1A7"/>
<path d="M52.5293 60.9246V61.4854C52.6181 61.2718 52.6181 61.1381 52.5293 60.9246Z" fill="#EEDBCB"/>
<path d="M48.6963 61.0181V61.3919C48.7627 61.2274 48.7627 61.1826 48.6963 61.0181Z" fill="#DFBA9D"/>
<path d="M53.7432 61.1116V62.0463C53.8693 61.7465 53.8693 61.4113 53.7432 61.1116Z" fill="#EFDBCD"/>
<path d="M49.9121 61.2051V61.6724C49.9897 61.4827 49.9897 61.3948 49.9121 61.2051Z" fill="#EDD5C3"/>
<path d="M48.6963 61.3918V61.9527C48.7851 61.7391 48.7851 61.6054 48.6963 61.3918Z" fill="#E9CDB8"/>
<path d="M48.6963 61.9526V62.42C48.7739 62.2302 48.7739 62.1424 48.6963 61.9526Z" fill="#F1DDD1"/>
<path d="M53.6504 62.0461V63.0743C53.784 62.7556 53.784 62.3649 53.6504 62.0461Z" fill="#E3BFA5"/>
<path d="M49.8174 62.2332V62.7005C49.895 62.5108 49.895 62.4229 49.8174 62.2332Z" fill="#EAD1BD"/>
<path d="M52.6221 62.4202V62.794C52.6884 62.6295 52.6884 62.5847 52.6221 62.4202Z" fill="#EDD9C7"/>
<path d="M49.8174 62.7004V63.1678C49.895 62.978 49.895 62.8902 49.8174 62.7004Z" fill="#F7EBE3"/>
<path d="M48.79 63.0745V63.6353C48.8788 63.4217 48.8788 63.288 48.79 63.0745Z" fill="#EFDBCD"/>
<path d="M52.7473 63.1368C52.7427 63.142 52.7371 63.2407 52.7791 63.1991C52.7838 63.1939 52.7894 63.0952 52.7473 63.1368Z" fill="#E1BFA3"/>
<path d="M53.6504 63.0745V63.4483C53.7168 63.2838 53.7168 63.239 53.6504 63.0745Z" fill="#EFD9CB"/>
<path d="M49.7246 63.1677V63.9155C49.833 63.6566 49.833 63.4266 49.7246 63.1677Z" fill="#F5E9DF"/>
<path d="M52.7158 63.2612V63.6351C52.7822 63.4706 52.7822 63.4257 52.7158 63.2612Z" fill="#EBD7C5"/>
<path d="M53.5566 63.5418V64.1026C53.6454 63.889 53.6454 63.7553 53.5566 63.5418Z" fill="#E5C7AF"/>
<path d="M48.8828 63.9155V64.8502C49.009 64.5505 49.009 64.2153 48.8828 63.9155Z" fill="#E5C9B1"/>
<path d="M49.6309 63.9155V64.4763C49.7197 64.2628 49.7197 64.1291 49.6309 63.9155Z" fill="#F1E1D2"/>
<path d="M52.8086 63.9155V64.3829C52.8862 64.1931 52.8862 64.1054 52.8086 63.9155Z" fill="#EBD3C1"/>
<path d="M53.5566 64.1025V64.4764C53.623 64.3119 53.623 64.267 53.5566 64.1025Z" fill="#EDD7C7"/>
<path d="M49.5381 64.4763V64.7567C49.6035 64.6115 49.6035 64.6216 49.5381 64.4763Z" fill="#E1BFA1"/>
<path d="M53.4639 64.4763V64.9437C53.5414 64.7539 53.5414 64.6661 53.4639 64.4763Z" fill="#DFB99A"/>
<path d="M49.5381 64.7568V65.0372C49.6035 64.892 49.6035 64.9021 49.5381 64.7568Z" fill="#EDD7C7"/>
<path d="M52.9023 64.7568V65.1307C52.9687 64.9662 52.9687 64.9213 52.9023 64.7568Z" fill="#E5C5AC"/>
<path d="M53.4639 64.9436V65.4109C53.5414 65.2212 53.5414 65.1333 53.4639 64.9436Z" fill="#EBD3BD"/>
<path d="M48.9775 65.1306V65.598C49.0551 65.4082 49.0551 65.3204 48.9775 65.1306Z" fill="#EBD3C1"/>
<path d="M49.4443 65.1306V65.411C49.5098 65.2661 49.5098 65.2755 49.4443 65.1306Z" fill="#E5C5AC"/>
<path d="M49.4443 65.4111V65.6915C49.5098 65.5467 49.5098 65.556 49.4443 65.4111Z" fill="#F1DFD2"/>
<path d="M52.9961 65.4111V65.6915C53.0615 65.5467 53.0615 65.556 52.9961 65.4111Z" fill="#E7CDB9"/>
<path d="M53.3691 65.4111V65.785C53.4355 65.6205 53.4355 65.5756 53.3691 65.4111Z" fill="#DFB798"/>
<path d="M48.9775 65.5979V65.9718C49.0439 65.8073 49.0439 65.7624 48.9775 65.5979Z" fill="#F3E3D9"/>
<path d="M49.3506 65.6914V65.9718C49.416 65.8269 49.416 65.8363 49.3506 65.6914Z" fill="#E4C3A9"/>
<path d="M53.3691 65.7849V66.1588C53.4355 65.9943 53.4355 65.9494 53.3691 65.7849Z" fill="#E9CFBB"/>
<path d="M49.0703 65.9719V66.4393C49.1479 66.2495 49.1479 66.1617 49.0703 65.9719Z" fill="#EBD5C3"/>
<path d="M49.3821 66.0344C49.3774 66.0391 49.3718 66.1382 49.4139 66.0961C49.4186 66.0915 49.4241 65.9924 49.3821 66.0344Z" fill="#F1DDD1"/>
<path d="M53.0898 65.9719V66.2523C53.1553 66.1075 53.1553 66.1168 53.0898 65.9719Z" fill="#E7CDB9"/>
<path d="M26.6377 66.0653C27.2854 66.3373 28.2734 66.1588 28.9744 66.1588C28.3267 65.8868 27.3387 66.0653 26.6377 66.0653Z" fill="#BFCFC8"/>
<path d="M49.2568 66.1587V66.626C49.3344 66.4363 49.3344 66.3484 49.2568 66.1587Z" fill="#E9CDB8"/>
<path d="M53.2761 66.1587L53.1826 66.626C53.3583 66.4746 53.3621 66.3737 53.2761 66.1587Z" fill="#DFB597"/>
<path d="M49.0703 66.4392C49.0778 66.6869 49.0703 66.8383 49.2572 67C49.2133 66.7944 49.1694 66.6233 49.0703 66.4392Z" fill="#F5E9DF"/>
<path d="M49.1956 66.6887C49.1909 66.6934 49.1853 66.7925 49.2274 66.7504C49.232 66.7458 49.2376 66.6467 49.1956 66.6887Z" fill="#E7CBB7"/>
<path d="M53.1826 66.6262C53.2462 66.7739 53.2583 66.7926 53.3696 66.9066V66.6262H53.1826Z" fill="#E9D1BF"/>
</svg>
