<svg width="96" height="96" viewBox="0 0 96 96" fill="none" xmlns="http://www.w3.org/2000/svg">
<rect width="96" height="96" rx="48" fill="#E9FEEC"/>
<path d="M47.3175 32.1463L38.8425 23.6713C33.9896 25.5181 29.7946 28.7651 26.79 33H46.965C47.0639 32.9998 47.1605 32.9704 47.2426 32.9154C47.3247 32.8603 47.3886 32.7822 47.4263 32.6908C47.4641 32.5995 47.4739 32.499 47.4545 32.4021C47.4351 32.3051 47.3875 32.2161 47.3175 32.1463Z" fill="#84BC55"/>
<path d="M36.9652 37H24.4539C22.1524 41.9058 21.4464 47.4096 22.4352 52.7375L37.3177 37.8538C37.3876 37.7839 37.4353 37.6949 37.4546 37.598C37.474 37.501 37.4642 37.4005 37.4265 37.3092C37.3888 37.2178 37.3248 37.1397 37.2427 37.0847C37.1606 37.0296 37.064 37.0002 36.9652 37Z" fill="#84BC55"/>
<path d="M58.9999 36.965V24.445C54.0924 22.1506 48.5904 21.4478 43.2637 22.435L58.1462 37.3175C58.216 37.3874 58.305 37.4351 58.402 37.4545C58.4989 37.4738 58.5994 37.464 58.6907 37.4263C58.7821 37.3886 58.8602 37.3246 58.9153 37.2425C58.9703 37.1604 58.9998 37.0638 58.9999 36.965Z" fill="#84BC55"/>
<path d="M73.5648 43.2625L58.6823 58.1462C58.6124 58.2161 58.5647 58.3051 58.5453 58.402C58.526 58.4989 58.5358 58.5994 58.5735 58.6908C58.6112 58.7821 58.6752 58.8603 58.7573 58.9153C58.8394 58.9703 58.9359 58.9998 59.0348 58.9999H71.546C73.8476 54.0942 74.5536 48.5903 73.5648 43.2625Z" fill="#84BC55"/>
<path d="M63.8537 47.3175L72.3325 38.84C70.4906 33.9798 67.2413 29.7792 63 26.775V46.965C63.0002 47.0639 63.0296 47.1604 63.0847 47.2425C63.1397 47.3247 63.2178 47.3886 63.3092 47.4263C63.4005 47.464 63.501 47.4738 63.598 47.4545C63.6949 47.4351 63.7839 47.3875 63.8537 47.3175Z" fill="#84BC55"/>
<path d="M43.71 58.7213C43.8962 58.9001 44.1444 59 44.4025 59.0001H51.86C51.9927 59 52.124 58.9736 52.2463 58.9223C52.3686 58.871 52.4795 58.7959 52.5725 58.7013L58.72 52.4513C58.9045 52.264 59.0077 52.0117 59.0075 51.7488L59 44.1476C59 44.0152 58.9736 43.8842 58.9226 43.7621C58.8715 43.64 58.7967 43.5293 58.7025 43.4363L52.4525 37.2801C52.2649 37.0953 52.0121 36.992 51.7488 36.9926L44.1438 37.0001C44.0114 37.0001 43.8804 37.0264 43.7583 37.0775C43.6362 37.1286 43.5255 37.2034 43.4325 37.2976L37.2763 43.5476C37.0915 43.7351 36.9882 43.988 36.9888 44.2513L36.9963 51.8488C36.9963 51.9832 37.0234 52.1163 37.0761 52.24C37.1287 52.3637 37.2057 52.4755 37.3025 52.5688L43.71 58.7213Z" fill="#84BC55"/>
<path d="M48.6823 63.8537L57.1573 72.3288C62.0103 70.4819 66.2052 67.235 69.2098 63H49.0348C48.9359 63.0002 48.8394 63.0296 48.7573 63.0847C48.6752 63.1397 48.6112 63.2178 48.5735 63.3092C48.5358 63.4005 48.526 63.501 48.5453 63.598C48.5647 63.6949 48.6124 63.7839 48.6823 63.8537Z" fill="#84BC55"/>
<path d="M37 59.035V71.555C41.9075 73.8495 47.4096 74.5523 52.7363 73.565L37.8538 58.6825C37.7839 58.6126 37.6949 58.5649 37.598 58.5456C37.501 58.5262 37.4005 58.536 37.3092 58.5737C37.2178 58.6115 37.1397 58.6754 37.0847 58.7575C37.0296 58.8396 37.0002 58.9362 37 59.035Z" fill="#84BC55"/>
<path d="M32.1462 48.6825L23.6675 57.1613C25.5098 62.0209 28.759 66.221 33 69.225V49.035C32.9998 48.9362 32.9704 48.8396 32.9153 48.7575C32.8603 48.6754 32.7822 48.6115 32.6908 48.5737C32.5994 48.536 32.4989 48.5262 32.402 48.5456C32.3051 48.5649 32.2161 48.6126 32.1462 48.6825Z" fill="#84BC55"/>
</svg>
