<svg width="96" height="96" viewBox="0 0 96 96" fill="none" xmlns="http://www.w3.org/2000/svg">
<rect width="96" height="96" rx="48" fill="#DBEAFE"/>
<path d="M24.2627 60.625C23.8767 60.6252 23.4988 60.5136 23.1748 60.3038C22.8507 60.094 22.5943 59.7948 22.4365 59.4425C20.5271 55.1781 19.7152 50.5037 20.0747 45.8451C20.4343 41.1866 21.954 36.6922 24.4952 32.7713C27.0364 28.8504 30.5184 25.6278 34.6239 23.3971C38.7294 21.1664 43.3279 19.9986 48.0002 20C48.5307 20 49.0394 20.2107 49.4145 20.5858C49.7895 20.9609 50.0002 21.4696 50.0002 22V48C50.0003 48.3862 49.8886 48.7642 49.6785 49.0882C49.4685 49.4123 49.1691 49.6686 48.8165 49.8263L25.079 60.445C24.8227 60.5621 24.5445 60.6234 24.2627 60.625Z" fill="#2563EB"/>
<path d="M55.1987 24.5225C55.0537 24.4931 54.9039 24.4962 54.7603 24.5317C54.6166 24.5672 54.4826 24.6341 54.368 24.7276C54.2533 24.8211 54.1608 24.9389 54.0972 25.0724C54.0335 25.206 54.0003 25.3521 53.9999 25.5V48C53.9989 49.158 53.6634 50.2911 53.0336 51.2628C52.4037 52.2346 51.5066 53.0037 50.4499 53.4775L28.8912 63.125C28.7576 63.1847 28.6387 63.2729 28.5429 63.3836C28.4471 63.4942 28.3767 63.6245 28.3368 63.7653C28.2968 63.9061 28.2883 64.0539 28.3117 64.1983C28.3352 64.3428 28.39 64.4803 28.4724 64.6013C30.1223 67.0278 32.1703 69.1582 34.5299 70.9025C39.0006 74.2282 44.428 76.0166 49.9999 76C64.3362 76 75.9999 64.3363 75.9999 50C75.9999 37.4438 67.0524 26.9375 55.1987 24.5225Z" fill="#2563EB"/>
</svg>
