<svg width="132" height="132" viewBox="0 0 132 132" fill="none" xmlns="http://www.w3.org/2000/svg">
<rect width="132" height="132" rx="66" fill="#CFFAFE"/>
<path d="M102.085 81.017C104.984 81.017 106.125 83.7852 106.125 87.2C106.125 90.6148 104.984 93.383 102.085 93.383C99.1861 93.383 96.8358 90.6148 96.8358 87.2C96.8358 83.7852 99.1861 81.017 102.085 81.017ZM66.0012 46.6912C68.5418 46.6912 71.0253 45.9378 73.1378 44.5263C75.2502 43.1148 76.8967 41.1086 77.869 38.7614C78.8412 36.4142 79.0956 33.8313 78.5999 31.3395C78.1043 28.8477 76.8809 26.5589 75.0844 24.7624C73.2879 22.9659 70.999 21.7425 68.5072 21.2468C66.0154 20.7512 63.4326 21.0056 61.0854 21.9778C58.7382 22.9501 56.732 24.5965 55.3205 26.709C53.909 28.8214 53.1556 31.305 53.1556 33.8456C53.1556 35.5325 53.4879 37.2029 54.1334 38.7614C54.779 40.3199 55.7252 41.736 56.918 42.9288C58.1108 44.1216 59.5269 45.0678 61.0854 45.7134C62.6439 46.3589 64.3143 46.6912 66.0012 46.6912ZM94.2837 62.1726C87.6217 55.2878 77.4372 50.8728 66.0037 50.8728C54.5697 50.8728 44.3835 55.2873 37.7213 62.1728C49.9706 63.983 59.4589 67.5362 65.999 72.7497C72.5372 67.5379 82.0224 63.9854 94.2837 62.1726ZM68.0015 111C76.4218 103.971 89.7982 101.208 100.531 100.157C100.792 100.137 101.036 100.018 101.213 99.8244C101.39 99.631 101.486 99.3775 101.482 99.1155V97.3534C96.6565 97.0129 92.8318 92.5976 92.8318 87.2009C92.8318 81.8042 96.6565 77.389 101.482 77.0485V66.5156C101.483 66.3687 101.453 66.2233 101.394 66.0888C101.335 65.9543 101.248 65.8337 101.14 65.7346C101.031 65.6356 100.903 65.5604 100.764 65.5138C100.625 65.4673 100.477 65.4504 100.331 65.4643C89.6279 66.5156 76.3717 69.299 68.0015 76.2676V111ZM39.1663 87.2009C39.1663 92.5976 35.3416 97.0129 30.5157 97.3534V99.1155C30.5122 99.3775 30.6086 99.631 30.7852 99.8244C30.9619 100.018 31.2057 100.137 31.4669 100.157C42.1999 101.208 55.5763 103.971 63.9966 111V76.2676C55.6264 69.299 42.3702 66.5156 31.6671 65.4643C31.5209 65.4504 31.3734 65.4673 31.2341 65.5138C31.0948 65.5604 30.9668 65.6356 30.8583 65.7346C30.7499 65.8337 30.6633 65.9543 30.6043 66.0888C30.5453 66.2233 30.5151 66.3687 30.5157 66.5156V77.0485C35.3416 77.389 39.1663 81.8043 39.1663 87.2009ZM29.9129 93.383C32.812 93.383 35.1623 90.6148 35.1623 87.2C35.1623 83.7852 32.812 81.017 29.9129 81.017C27.0138 81.017 25.873 83.7853 25.873 87.2C25.873 90.6148 27.0138 93.383 29.9129 93.383Z" fill="#0394A2"/>
</svg>
