<svg width="132" height="132" viewBox="0 0 132 132" fill="none" xmlns="http://www.w3.org/2000/svg">
<rect width="132" height="132" rx="66" fill="#EDE9FE"/>
<path fill-rule="evenodd" clip-rule="evenodd" d="M95.8828 96.5822V86.2909C95.8828 86.0773 96.0578 85.9026 96.2734 85.9026C96.4891 85.9026 96.6641 86.0773 96.6641 86.2909V110.757C96.6641 111.613 97.3643 112.31 98.2266 112.31C99.0889 112.31 99.7891 111.613 99.7891 110.757V93.2812C99.7891 93.0676 99.9641 92.8929 100.18 92.8929C100.395 92.8929 100.57 93.0676 100.57 93.2812V110.757C100.57 111.613 101.271 112.31 102.133 112.31C102.996 112.31 103.695 111.613 103.695 110.757V86.2909C103.695 86.0773 103.871 85.9026 104.086 85.9026C104.301 85.9026 104.477 86.0773 104.477 86.2909V96.5822C104.477 97.4385 105.178 98.1356 106.039 98.1356C106.9 98.1356 107.602 97.4385 107.602 96.5822V90.1744V83.9608V82.7958C107.602 82.7705 107.602 82.7433 107.6 82.7181L107.602 82.6016C107.602 81.7453 106.9 81.0482 106.039 81.0482H94.3203C93.458 81.0482 92.7578 81.7453 92.7578 82.6016C92.7578 82.6268 92.7584 82.654 92.7598 82.6793L92.7578 82.7958V96.5822C92.7578 97.4385 93.458 98.1356 94.3203 98.1356C95.1826 98.1356 95.8828 97.4385 95.8828 96.5822ZM27.1328 96.5822V86.2909C27.1328 86.0773 27.3078 85.9026 27.5234 85.9026C27.7391 85.9026 27.9141 86.0773 27.9141 86.2909V110.757C27.9141 111.613 28.6143 112.31 29.4766 112.31C30.3389 112.31 31.0391 111.613 31.0391 110.757V93.2812C31.0391 93.0676 31.2141 92.8929 31.4297 92.8929C31.6453 92.8929 31.8203 93.0676 31.8203 93.2812V110.757C31.8203 111.613 32.5205 112.31 33.3828 112.31C34.2451 112.31 34.9453 111.613 34.9453 110.757V86.2909C34.9453 86.0773 35.1203 85.9026 35.3359 85.9026C35.5516 85.9026 35.7266 86.0773 35.7266 86.2909V96.5822C35.7266 97.4385 36.4268 98.1356 37.2891 98.1356C38.1514 98.1356 38.8516 97.4385 38.8516 96.5822V90.1744V83.9608V82.7958C38.8516 82.7705 38.851 82.7433 38.8496 82.7181L38.8516 82.6016C38.8516 81.7453 38.1514 81.0482 37.2891 81.0482H25.5703C24.708 81.0482 24.0078 81.7453 24.0078 82.6016C24.0078 82.6268 24.0084 82.654 24.0098 82.6793L24.0078 82.7958V96.5822C24.0078 97.4385 24.708 98.1356 25.5703 98.1356C26.4326 98.1356 27.1328 97.4385 27.1328 96.5822ZM49.5938 87.0812C50.7869 87.0812 51.7555 88.0443 51.7555 89.2307C51.7555 90.4152 50.7869 91.3783 49.5938 91.3783C48.4006 91.3783 47.432 90.4152 47.432 89.2307C47.432 88.0443 48.4006 87.0812 49.5938 87.0812ZM82.5039 87.0812C83.6971 87.0812 84.6656 88.0443 84.6656 89.2307C84.6656 90.4152 83.6971 91.3783 82.5039 91.3783C81.3107 91.3783 80.3422 90.4152 80.3422 89.2307C80.3422 88.0443 81.3107 87.0812 82.5039 87.0812ZM85.6836 88.2327C85.7836 88.5472 85.8375 88.8831 85.8375 89.2307C85.8375 89.5589 85.7895 89.8754 85.7 90.1744H89.4375C89.9766 90.1744 90.4141 89.7395 90.4141 89.2035C90.4141 88.6676 89.9766 88.2327 89.4375 88.2327H85.6836ZM46.4141 88.2327H42.6602C42.1211 88.2327 41.6836 88.6676 41.6836 89.2035C41.6836 89.7395 42.1211 90.1744 42.6602 90.1744H46.3977C46.3082 89.8754 46.2602 89.5589 46.2602 89.2307C46.2602 88.8831 46.3141 88.5472 46.4141 88.2327ZM61.7031 70.4657V60.1744C61.7031 59.9608 61.8781 59.7861 62.0938 59.7861C62.3094 59.7861 62.4844 59.9608 62.4844 60.1744V84.6404C62.4844 85.4967 63.1846 86.1938 64.0469 86.1938C64.9092 86.1938 65.6094 85.4967 65.6094 84.6404V67.1647C65.6094 66.9511 65.7844 66.7763 66 66.7763C66.2156 66.7763 66.3906 66.9511 66.3906 67.1647V84.6404C66.3906 85.4967 67.0908 86.1938 67.9531 86.1938C68.8154 86.1938 69.5156 85.4967 69.5156 84.6404V60.1744C69.5156 59.9608 69.6906 59.7861 69.9062 59.7861C70.1219 59.7861 70.2969 59.9608 70.2969 60.1744V70.4657C70.2969 71.322 70.9971 72.0191 71.8594 72.0191C72.7217 72.0191 73.4219 71.322 73.4219 70.4657V64.0579V57.8443V56.6793C73.4219 56.654 73.4213 56.6268 73.4199 56.6016L73.4219 56.4851C73.4219 55.6288 72.7217 54.9317 71.8594 54.9317H60.1406C59.2783 54.9317 58.5781 55.6288 58.5781 56.4851C58.5781 56.5103 58.5787 56.5375 58.5801 56.5628L58.5781 56.6793V70.4657C58.5781 71.322 59.2783 72.0191 60.1406 72.0191C61.0029 72.0191 61.7031 71.322 61.7031 70.4657ZM48.6172 68.8773V86.0599C48.926 85.9667 49.2539 85.9161 49.5938 85.9161C49.9336 85.9161 50.2615 85.9667 50.5703 86.0599V68.8773C50.2615 68.9725 49.9336 69.0229 49.5938 69.0229C49.2539 69.0229 48.926 68.9725 48.6172 68.8773ZM83.4805 68.8773C83.1717 68.9725 82.8438 69.0229 82.5039 69.0229C82.1641 69.0229 81.8361 68.9725 81.5273 68.8773V86.0599C81.8361 85.9667 82.1641 85.9161 82.5039 85.9161C82.8438 85.9161 83.1717 85.9667 83.4805 86.0599V68.8773ZM100.18 71.3395C102.443 71.3395 104.281 73.1666 104.281 75.4171C104.281 77.6676 102.443 79.4948 100.18 79.4948C97.916 79.4948 96.0781 77.6676 96.0781 75.4171C96.0781 73.1666 97.916 71.3395 100.18 71.3395ZM31.4297 71.3395C33.6934 71.3395 35.5312 73.1666 35.5312 75.4171C35.5312 77.6676 33.6934 79.4948 31.4297 79.4948C29.166 79.4948 27.3281 77.6676 27.3281 75.4171C27.3281 73.1666 29.166 71.3395 31.4297 71.3395ZM49.5938 63.5589C50.7869 63.5589 51.7555 64.522 51.7555 65.7084C51.7555 66.8948 50.7869 67.8579 49.5938 67.8579C48.4006 67.8579 47.432 66.8948 47.432 65.7084C47.432 64.522 48.4006 63.5589 49.5938 63.5589ZM82.5039 63.5589C83.6971 63.5589 84.6656 64.522 84.6656 65.7084C84.6656 66.8948 83.6971 67.8579 82.5039 67.8579C81.3107 67.8579 80.3422 66.8948 80.3422 65.7084C80.3422 64.522 81.3107 63.5589 82.5039 63.5589ZM52.7816 64.7375C52.8764 65.0443 52.9273 65.3705 52.9273 65.7084C52.9273 66.0462 52.8764 66.3725 52.7816 66.6793H55.0625C55.6016 66.6793 56.0391 66.2443 56.0391 65.7084C56.0391 65.1725 55.6016 64.7375 55.0625 64.7375H52.7816ZM79.316 64.7375H77.0352C76.4961 64.7375 76.0586 65.1725 76.0586 65.7084C76.0586 66.2443 76.4961 66.6793 77.0352 66.6793H79.316C79.2213 66.3725 79.1703 66.0462 79.1703 65.7084C79.1703 65.3705 79.2213 65.0443 79.316 64.7375ZM48.6172 43.3433V62.5395C48.926 62.4443 49.2539 62.3938 49.5938 62.3938C49.9336 62.3938 50.2615 62.4443 50.5703 62.5395V43.3433C50.2615 43.4385 49.9336 43.489 49.5938 43.489C49.2539 43.489 48.926 43.4385 48.6172 43.3433ZM81.5273 43.3433V62.5395C81.8361 62.4443 82.1641 62.3938 82.5039 62.3938C82.8438 62.3938 83.1717 62.4443 83.4805 62.5395V43.3433C83.1717 43.4385 82.8438 43.489 82.5039 43.489C82.1641 43.489 81.8361 43.4385 81.5273 43.3433ZM95.8828 44.3492V34.0579C95.8828 33.8443 96.0578 33.6696 96.2734 33.6696C96.4891 33.6696 96.6641 33.8443 96.6641 34.0579V58.5239C96.6641 59.3802 97.3643 60.0773 98.2266 60.0773C99.0889 60.0773 99.7891 59.3802 99.7891 58.5239V41.0482C99.7891 40.8346 99.9641 40.6598 100.18 40.6598C100.395 40.6598 100.57 40.8346 100.57 41.0482V58.5239C100.57 59.3802 101.271 60.0773 102.133 60.0773C102.996 60.0773 103.695 59.3802 103.695 58.5239V34.0579C103.695 33.8443 103.871 33.6696 104.086 33.6696C104.301 33.6696 104.477 33.8443 104.477 34.0579V44.3492C104.477 45.2055 105.178 45.9026 106.039 45.9026C106.9 45.9026 107.602 45.2055 107.602 44.3492V37.9414V31.7278V30.5628C107.602 30.5375 107.602 30.5103 107.6 30.4851L107.602 30.3686C107.602 29.5123 106.9 28.8152 106.039 28.8152H94.3203C93.458 28.8152 92.7578 29.5123 92.7578 30.3686C92.7578 30.3938 92.7584 30.421 92.7598 30.4463L92.7578 30.5628V44.3492C92.7578 45.2055 93.458 45.9026 94.3203 45.9026C95.1826 45.9026 95.8828 45.2055 95.8828 44.3492ZM27.1328 44.3492V34.0579C27.1328 33.8443 27.3078 33.6696 27.5234 33.6696C27.7391 33.6696 27.9141 33.8443 27.9141 34.0579V58.5239C27.9141 59.3802 28.6143 60.0773 29.4766 60.0773C30.3389 60.0773 31.0391 59.3802 31.0391 58.5239V41.0482C31.0391 40.8346 31.2141 40.6598 31.4297 40.6598C31.6453 40.6598 31.8203 40.8346 31.8203 41.0482V58.5239C31.8203 59.3802 32.5205 60.0773 33.3828 60.0773C34.2451 60.0773 34.9453 59.3802 34.9453 58.5239V34.0579C34.9453 33.8443 35.1203 33.6696 35.3359 33.6696C35.5516 33.6696 35.7266 33.8443 35.7266 34.0579V44.3492C35.7266 45.2055 36.4268 45.9026 37.2891 45.9026C38.1514 45.9026 38.8516 45.2055 38.8516 44.3492V37.9414V31.7278V30.5628C38.8516 30.5375 38.851 30.5103 38.8496 30.4851L38.8516 30.3686C38.8516 29.5123 38.1514 28.8152 37.2891 28.8152H25.5703C24.708 28.8152 24.0078 29.5123 24.0078 30.3686C24.0078 30.3938 24.0084 30.421 24.0098 30.4463L24.0078 30.5628V44.3492C24.0078 45.2055 24.708 45.9026 25.5703 45.9026C26.4326 45.9026 27.1328 45.2055 27.1328 44.3492ZM66 45.2229C68.2637 45.2229 70.1016 47.0501 70.1016 49.3006C70.1016 51.5511 68.2637 53.3783 66 53.3783C63.7363 53.3783 61.8984 51.5511 61.8984 49.3006C61.8984 47.0501 63.7363 45.2229 66 45.2229ZM49.5938 38.0249C50.7869 38.0249 51.7555 38.988 51.7555 40.1744C51.7555 41.3608 50.7869 42.3239 49.5938 42.3239C48.4006 42.3239 47.432 41.3608 47.432 40.1744C47.432 38.988 48.4006 38.0249 49.5938 38.0249ZM82.5039 38.0249C83.6971 38.0249 84.6656 38.988 84.6656 40.1744C84.6656 41.3608 83.6971 42.3239 82.5039 42.3239C81.3107 42.3239 80.3422 41.3608 80.3422 40.1744C80.3422 38.988 81.3107 38.0249 82.5039 38.0249ZM85.692 39.2035C85.7865 39.5103 85.8375 39.8365 85.8375 40.1744C85.8375 40.5123 85.7865 40.8385 85.692 41.1453H89.4375C89.9766 41.1453 90.4141 40.7103 90.4141 40.1744C90.4141 39.6385 89.9766 39.2035 89.4375 39.2035H85.692ZM46.4059 39.2035H42.6602C42.1211 39.2035 41.6836 39.6385 41.6836 40.1744C41.6836 40.7103 42.1211 41.1453 42.6602 41.1453H46.4059C46.3111 40.8385 46.2602 40.5123 46.2602 40.1744C46.2602 39.8365 46.3111 39.5103 46.4059 39.2035ZM31.4297 19.1064C33.6934 19.1064 35.5312 20.9336 35.5312 23.1841C35.5312 25.4346 33.6934 27.2618 31.4297 27.2618C29.166 27.2618 27.3281 25.4346 27.3281 23.1841C27.3281 20.9336 29.166 19.1064 31.4297 19.1064ZM100.18 19.1064C102.443 19.1064 104.281 20.9336 104.281 23.1841C104.281 25.4346 102.443 27.2618 100.18 27.2618C97.916 27.2618 96.0781 25.4346 96.0781 23.1841C96.0781 20.9336 97.916 19.1064 100.18 19.1064Z" fill="#7C3AED"/>
</svg>
