<svg width="132" height="134" viewBox="0 0 132 134" fill="none" xmlns="http://www.w3.org/2000/svg">
<rect width="132" height="134" rx="66" fill="#D1FAE5"/>
<path d="M73.4718 21.0855C63.6498 20.4135 54.2888 23.7205 47.1218 30.4105C40.3428 36.7385 36.3368 45.5775 36.0208 54.8165L27.5108 67.3355C26.4018 68.9675 25.8868 70.8755 26.0208 72.8565C26.3318 77.4225 30.2558 81.0005 34.9548 81.0005H35.9998V86.0005C35.9998 94.2715 42.7288 101 50.9998 101H63.0618L65.8228 111.306L100.115 102.118L99.0468 98.1385C96.7608 89.6065 97.8648 80.3055 102.157 71.9475C105.007 66.3985 106.313 60.1405 105.935 53.8505C104.886 36.3735 90.9288 22.2885 73.4718 21.0855ZM95.4848 68.5215C90.8838 77.4805 89.3528 87.3915 91.0618 96.7795L71.1268 102.121L68.8168 93.5005H50.9998C46.8638 93.5005 43.4998 90.1365 43.4998 86.0005V73.5005H34.9548C34.2108 73.5005 33.5458 72.9715 33.5028 72.3465C33.4828 72.0535 33.5538 71.7845 33.7128 71.5515L43.4998 57.1545V56.0005C43.4998 48.2945 46.6038 41.1545 52.2398 35.8935C57.3888 31.0865 63.9818 28.5005 70.9828 28.5005C71.6378 28.5005 72.2958 28.5235 72.9568 28.5685C86.6648 29.5125 97.6248 40.5745 98.4488 54.2995C98.7458 59.2485 97.7208 64.1665 95.4848 68.5215Z" fill="#21975A"/>
<path d="M71 33.5C58.574 33.5 48.5 43.574 48.5 56C48.5 68.426 58.574 78.5 71 78.5C83.426 78.5 93.5 68.426 93.5 56C93.5 43.574 83.426 33.5 71 33.5ZM71 73.5C61.35 73.5 53.5 65.65 53.5 56C53.5 46.35 61.35 38.5 71 38.5C80.65 38.5 88.5 46.35 88.5 56C88.5 65.65 80.65 73.5 71 73.5Z" fill="#21975A"/>
<path d="M73.5 43.5H68.5V58.5H81V53.5H73.5V43.5Z" fill="#21975A"/>
</svg>
