<svg width="132" height="132" viewBox="0 0 132 132" fill="none" xmlns="http://www.w3.org/2000/svg">
<rect width="132" height="132" rx="66" fill="#DBEAFE"/>
<path d="M97.8497 65.4603C97.8107 65.0796 97.8853 64.6958 98.0639 64.3573C98.2425 64.0189 98.5173 63.7408 98.8536 63.5581C99.1899 63.3754 99.5728 63.2963 99.9539 63.3307C100.335 63.3651 100.698 63.5115 100.996 63.7514C101.294 63.9913 101.515 64.3141 101.63 64.6791C101.745 65.0441 101.749 65.435 101.643 65.8026C101.537 66.1702 101.324 66.4981 101.031 66.7451C100.739 66.992 100.38 67.1469 99.9997 67.1903H99.7597C99.2847 67.1858 98.828 67.0071 98.4759 66.6883C98.1239 66.3694 97.9011 65.9325 97.8497 65.4603ZM34.9997 50.7703C34.7416 51.2147 34.6704 51.7433 34.8016 52.2401C34.9328 52.7369 35.2558 53.1614 35.6997 53.4203C35.9868 53.5832 36.3097 53.6726 36.6397 53.6803C36.9818 53.6874 37.3197 53.6038 37.6191 53.438C37.9185 53.2723 38.1688 53.0303 38.3444 52.7366C38.5201 52.4429 38.615 52.108 38.6194 51.7658C38.6238 51.4236 38.5376 51.0864 38.3696 50.7882C38.2016 50.4901 37.9577 50.2417 37.6627 50.0683C37.3677 49.8949 37.0321 49.8026 36.6899 49.8008C36.3477 49.7989 36.0111 49.8877 35.7142 50.058C35.4174 50.2282 35.1709 50.474 34.9997 50.7703ZM95.4397 53.7703C95.7906 53.7777 96.1368 53.6877 96.4397 53.5103C96.8435 53.2763 97.1487 52.9038 97.299 52.462C97.4493 52.0201 97.4343 51.5388 97.2569 51.1071C97.0796 50.6754 96.7518 50.3226 96.3343 50.114C95.9167 49.9055 95.4378 49.8553 94.9861 49.9727C94.5344 50.0901 94.1406 50.3673 93.8775 50.7528C93.6145 51.1383 93.5 51.6061 93.5554 52.0695C93.6107 52.5329 93.8321 52.9606 94.1786 53.2733C94.525 53.586 94.973 53.7626 95.4397 53.7703ZM84.4397 40.1803C84.1362 40.5955 84.01 41.1141 84.0888 41.6223C84.1675 42.1304 84.4448 42.5865 84.8597 42.8903C85.2748 43.1938 85.7935 43.32 86.3016 43.2412C86.8098 43.1625 87.2659 42.8852 87.5697 42.4703C87.8347 42.054 87.9311 41.5524 87.8392 41.0675C87.7474 40.5827 87.4742 40.151 87.0754 39.8605C86.6765 39.5699 86.1819 39.4423 85.6922 39.5036C85.2026 39.5649 84.7547 39.8104 84.4397 40.1903V40.1803ZM30.3197 65.0003C30.2602 65.5077 30.4033 66.018 30.7178 66.4206C31.0324 66.8231 31.493 67.0853 31.9997 67.1503H32.1797C32.67 67.1684 33.149 66.9999 33.5201 66.6789C33.8912 66.3579 34.1269 65.9082 34.1797 65.4203C34.2354 64.9085 34.0855 64.3954 33.7629 63.9941C33.4403 63.5928 32.9716 63.336 32.4597 63.2803C31.9478 63.2246 31.4348 63.3746 31.0335 63.6971C30.6321 64.0197 30.3754 64.4885 30.3197 65.0003ZM65.9497 104.66C66.333 104.658 66.707 104.543 67.0248 104.329C67.3425 104.114 67.5896 103.81 67.7349 103.456C67.8802 103.101 67.9172 102.711 67.8412 102.336C67.7652 101.96 67.5797 101.615 67.3079 101.345C67.0362 101.075 66.6905 100.891 66.3145 100.817C65.9384 100.743 65.5489 100.782 65.195 100.929C64.8411 101.076 64.5387 101.325 64.326 101.644C64.1132 101.962 63.9997 102.337 63.9997 102.72C63.9982 102.981 64.0493 103.239 64.1501 103.479C64.2508 103.719 64.399 103.936 64.5859 104.117C64.7727 104.298 64.9943 104.44 65.2372 104.533C65.4802 104.627 65.7396 104.67 65.9997 104.66H65.9497ZM52.9997 98.0003C52.5345 97.8157 52.016 97.8179 51.5525 98.0066C51.089 98.1952 50.7163 98.5557 50.5123 99.0127C50.3083 99.4697 50.2889 99.9879 50.458 100.459C50.6271 100.93 50.9716 101.317 51.4197 101.54C51.6553 101.648 51.9106 101.706 52.1697 101.71C52.6168 101.719 53.0531 101.572 53.4048 101.296C53.7564 101.02 54.0019 100.631 54.0995 100.194C54.1971 99.7578 54.141 99.301 53.9406 98.9013C53.7402 98.5015 53.4078 98.1832 52.9997 98.0003ZM79.7997 101.72C80.0866 101.716 80.369 101.648 80.6265 101.522C80.884 101.395 81.1102 101.213 81.2889 100.988C81.4675 100.764 81.5941 100.502 81.6596 100.223C81.725 99.9436 81.7276 99.6532 81.6673 99.3727C81.607 99.0921 81.4852 98.8285 81.3107 98.6007C81.1362 98.3729 80.9133 98.1867 80.6581 98.0554C80.403 97.9242 80.1219 97.8511 79.8351 97.8416C79.5483 97.8321 79.263 97.8863 78.9997 98.0003C78.5971 98.1808 78.2681 98.4931 78.0668 98.8857C77.8656 99.2783 77.8041 99.7277 77.8927 100.16C77.9812 100.592 78.2144 100.981 78.5538 101.263C78.8932 101.545 79.3186 101.703 79.7597 101.71L79.7997 101.72ZM44.9997 39.7103C44.6878 39.9348 44.4497 40.2469 44.3154 40.607C44.1812 40.967 44.1569 41.3589 44.2456 41.7327C44.3344 42.1066 44.5321 42.4457 44.8139 42.7071C45.0956 42.9684 45.4486 43.1402 45.8281 43.2006C46.2076 43.261 46.5964 43.2074 46.9454 43.0465C47.2944 42.8856 47.5877 42.6247 47.7882 42.2969C47.9887 41.9691 48.0873 41.5891 48.0716 41.2052C48.0558 40.8212 47.9264 40.4506 47.6997 40.1403C47.3975 39.7267 46.9441 39.4494 46.4383 39.3689C45.9325 39.2883 45.4154 39.4111 44.9997 39.7103ZM83.0797 69.8903V71.4703C83.0797 71.7557 82.9796 72.0321 82.7969 72.2514C82.6142 72.4706 82.3604 72.6189 82.0797 72.6703L78.8997 73.2103C78.5913 74.4152 78.1132 75.5701 77.4797 76.6403L79.3497 79.2603C79.5152 79.4959 79.5928 79.782 79.569 80.0689C79.5453 80.3557 79.4216 80.6252 79.2197 80.8303L78.0797 82.0003L76.9997 83.0903C76.7956 83.2941 76.5259 83.4189 76.2385 83.4427C75.9511 83.4665 75.6645 83.3877 75.4297 83.2203L72.8097 81.3503C71.7657 81.9653 70.6417 82.4331 69.4697 82.7403L68.9297 85.9403C68.8782 86.2211 68.73 86.4748 68.5107 86.6576C68.2915 86.8403 68.0151 86.9403 67.7297 86.9403H64.5297C64.2443 86.9403 63.9679 86.8403 63.7487 86.6576C63.5294 86.4748 63.3812 86.2211 63.3297 85.9403L62.7997 82.8003C61.5968 82.4953 60.4424 82.0241 59.3697 81.4003L56.7197 83.2803C56.4841 83.4458 56.198 83.5234 55.9111 83.4997C55.6243 83.4759 55.3548 83.3523 55.1497 83.1503L53.9997 82.0003L52.8897 80.9003C52.686 80.6962 52.5611 80.4265 52.5373 80.1391C52.5135 79.8517 52.5923 79.5652 52.7597 79.3303L54.6097 76.7303C53.9695 75.6682 53.4846 74.5199 53.1697 73.3203L49.9997 72.7803C49.719 72.7289 49.4652 72.5806 49.2825 72.3614C49.0997 72.1421 48.9997 71.8657 48.9997 71.5803V68.4203C48.9997 68.1349 49.0997 67.8586 49.2825 67.6393C49.4652 67.42 49.719 67.2718 49.9997 67.2203L53.1597 66.7203C53.4647 65.5175 53.9359 64.363 54.5597 63.2903L52.6797 60.6403C52.5142 60.4048 52.4366 60.1187 52.4604 59.8318C52.4841 59.5449 52.6077 59.2754 52.8097 59.0703L53.9397 57.9403L54.9997 56.8103C55.2038 56.6066 55.4735 56.4817 55.7609 56.4579C56.0483 56.4341 56.3348 56.5129 56.5697 56.6803L59.1697 58.5303C60.2567 57.841 61.4442 57.3249 62.6897 57.0003L63.2297 53.8203C63.2812 53.5396 63.4294 53.2858 63.6487 53.1031C63.8679 52.9204 64.1443 52.8203 64.4297 52.8203H67.5997C67.8851 52.8203 68.1615 52.9204 68.3807 53.1031C68.6 53.2858 68.7482 53.5396 68.7997 53.8203L69.3297 57.0003C70.5346 57.3086 71.6895 57.7867 72.7597 58.4203L75.3797 56.5503C75.6136 56.3906 75.8942 56.3138 76.1769 56.3319C76.4596 56.35 76.728 56.4621 76.9397 56.6503L78.0697 57.7803L79.1997 58.9103C79.4034 59.1144 79.5283 59.3841 79.5521 59.6715C79.5759 59.9589 79.4971 60.2455 79.3297 60.4803L77.4597 63.1003C78.0932 64.1706 78.5713 65.3255 78.8797 66.5303L82.0597 67.0703C82.3404 67.1218 82.5942 67.27 82.7769 67.4893C82.9596 67.7086 83.0597 67.9849 83.0597 68.2703L83.0797 69.8903ZM72.6797 67.0003L70.1497 64.4603L64.3197 70.2603L61.8797 67.8103L59.3397 70.3403L61.7797 72.7903L64.3097 75.3303L66.8497 72.8003L72.6797 67.0003ZM79.6297 38.1403C79.6286 37.7396 79.5382 37.3441 79.3653 36.9826C79.1923 36.6211 78.941 36.3026 78.6297 36.0503C76.155 34.0608 73.4728 32.3441 70.6297 30.9303C70.5884 30.9101 70.5534 30.8788 70.5287 30.84C70.504 30.8012 70.4905 30.7563 70.4897 30.7103V28.0503C70.8856 27.4227 71.1635 26.7279 71.3097 26.0003C71.6097 26.0003 71.9997 25.5603 72.4197 24.0803C72.9897 22.0803 72.4197 21.7503 71.8697 21.8003C71.9651 21.53 72.0387 21.2524 72.0897 20.9703C72.9597 15.7203 70.3797 15.5303 70.3797 15.5303C70.009 14.8841 69.4653 14.3542 68.8097 14.0003C67.8427 13.4386 66.7216 13.2004 65.6097 13.3203C65.1772 13.3408 64.7498 13.4216 64.3397 13.5603C63.8415 13.7335 63.3703 13.9758 62.9397 14.2803C62.412 14.6155 61.9283 15.0153 61.4997 15.4703C60.7375 16.2227 60.1977 17.1709 59.9397 18.2103C59.7371 19.0888 59.7371 20.0019 59.9397 20.8803C59.9906 21.1625 60.0642 21.44 60.1597 21.7103C59.6397 21.7103 59.0297 21.9603 59.6097 23.9903C60.0297 25.4703 60.4197 25.8903 60.7197 25.9103C60.845 26.658 61.106 27.3765 61.4897 28.0303V30.6703C61.4889 30.7163 61.4753 30.7612 61.4506 30.8C61.4259 30.8388 61.391 30.8701 61.3497 30.8903C58.5065 32.3041 55.8243 34.0208 53.3497 36.0103C53.0383 36.2626 52.7871 36.5811 52.6141 36.9426C52.4411 37.3041 52.3508 37.6996 52.3497 38.1003V42.0003H79.6297V38.1403ZM104.32 88.9503C104.278 88.9301 104.243 88.8988 104.219 88.86C104.194 88.8212 104.181 88.7763 104.18 88.7303V86.0603C104.577 85.4296 104.855 84.7314 105 84.0003C105.3 84.0003 105.69 83.5603 106.11 82.0803C106.68 80.0803 106.11 79.7503 105.56 79.8003C105.655 79.53 105.729 79.2524 105.78 78.9703C106.65 73.7203 104.07 73.5303 104.07 73.5303C103.688 72.8786 103.13 72.3481 102.46 72.0003C101.493 71.4386 100.372 71.2004 99.2597 71.3203C98.8287 71.3546 98.4046 71.4489 97.9997 71.6003C97.5015 71.7734 97.0303 72.0158 96.5997 72.3203C96.072 72.6555 95.5883 73.0553 95.1597 73.5103C94.3975 74.2627 93.8577 75.2108 93.5997 76.2503C93.3971 77.1288 93.3971 78.0419 93.5997 78.9203C93.6506 79.2025 93.7242 79.48 93.8197 79.7503C93.2997 79.7503 92.6897 80.0003 93.2697 82.0303C93.6897 83.5103 94.0797 83.9303 94.3797 83.9503C94.505 84.698 94.766 85.4165 95.1497 86.0703V88.7103C95.1489 88.7563 95.1353 88.8012 95.1106 88.84C95.0859 88.8788 95.051 88.9101 95.0097 88.9303C92.1665 90.3441 89.4843 92.0607 87.0097 94.0503C86.6983 94.3027 86.4471 94.6211 86.2741 94.9826C86.1011 95.3441 86.0108 95.7396 86.0097 96.1403V100H113.28V96.1603C113.279 95.7596 113.188 95.3641 113.015 95.0026C112.842 94.6411 112.591 94.3226 112.28 94.0703C109.818 92.0831 107.149 90.3666 104.32 88.9503ZM45.9997 96.1603C45.9986 95.7596 45.9082 95.3641 45.7353 95.0026C45.5623 94.6411 45.311 94.3226 44.9997 94.0703C42.5251 92.0807 39.8429 90.3641 36.9997 88.9503C36.9584 88.9301 36.9234 88.8988 36.8987 88.86C36.874 88.8212 36.8605 88.7763 36.8597 88.7303V86.0603C37.2392 85.4261 37.5002 84.728 37.6297 84.0003C37.9297 84.0003 38.3197 83.5603 38.7397 82.0803C39.3097 80.0803 38.7397 79.7503 38.1897 79.8003C38.2852 79.53 38.3588 79.2525 38.4097 78.9703C39.2797 73.7203 36.6997 73.5303 36.6997 73.5303C36.3318 72.8854 35.7916 72.3557 35.1397 72.0003C34.1727 71.4386 33.0516 71.2004 31.9397 71.3203C31.5072 71.3408 31.0798 71.4216 30.6697 71.5603C30.1716 71.7335 29.7003 71.9758 29.2697 72.2803C28.742 72.6155 28.2583 73.0153 27.8297 73.4703C27.0675 74.2227 26.5277 75.1708 26.2697 76.2103C26.0671 77.0888 26.0671 78.0019 26.2697 78.8803C26.3206 79.1625 26.3942 79.44 26.4897 79.7103C25.9697 79.7103 25.3597 79.9603 25.9397 81.9903C26.3597 83.4703 26.7497 83.8903 27.0497 83.9103C27.175 84.658 27.436 85.3765 27.8197 86.0303V88.6703C27.8189 88.7163 27.8053 88.7612 27.7806 88.8C27.7559 88.8388 27.721 88.8701 27.6797 88.8903C24.8365 90.3041 22.1543 92.0207 19.6797 94.0103C19.3683 94.2626 19.1171 94.5811 18.9441 94.9426C18.7711 95.3041 18.6808 95.6996 18.6797 96.1003V100H45.9997V96.1603Z" fill="#0652B7"/>
</svg>
