<svg width="96" height="96" viewBox="0 0 96 96" fill="none" xmlns="http://www.w3.org/2000/svg">
<rect width="96" height="96" rx="48" fill="#D1FAE5"/>
<path fill-rule="evenodd" clip-rule="evenodd" d="M40.5085 24.6279C41.7898 24.0926 43.1646 23.817 44.5532 23.817C45.9418 23.817 47.3166 24.0926 48.5979 24.6279C49.8792 25.1632 51.0415 25.9475 52.0174 26.9353C52.9933 27.9232 53.7634 29.0949 54.2831 30.3826C54.8013 31.6665 55.0603 33.0403 55.045 34.4247L55.0288 57.9978L55.0286 58.0129C54.9995 59.8526 54.2483 61.6072 52.937 62.898C51.6256 64.1887 49.8594 64.9122 48.0194 64.9122C46.1794 64.9122 44.4132 64.1887 43.1019 62.898C41.7906 61.6072 41.0394 59.8526 41.0103 58.0129L41.0101 57.9971V40C41.0101 38.8955 41.9055 38 43.0101 38C44.1146 38 45.0101 38.8955 45.0101 40V57.9635C45.0261 58.7484 45.3481 59.4963 45.9079 60.0473C46.471 60.6015 47.2294 60.9122 48.0194 60.9122C48.8095 60.9122 49.5679 60.6015 50.131 60.0473C50.6909 59.4962 51.013 58.7481 51.0288 57.9629L51.0451 34.3997L51.0452 34.3883C51.0556 33.5291 50.8954 32.6764 50.5738 31.8796C50.2523 31.0828 49.7757 30.3578 49.1718 29.7466C48.568 29.1353 47.8488 28.65 47.0559 28.3188C46.2631 27.9876 45.4124 27.817 44.5532 27.817C43.6939 27.817 42.8433 27.9876 42.0504 28.3188C41.2576 28.65 40.5384 29.1353 39.9345 29.7466C39.3307 30.3578 38.8541 31.0828 38.5325 31.8796C38.211 32.6764 38.0507 33.5291 38.0612 34.3883L38.0613 34.4004V58.1545L38.0611 58.169C38.042 59.4861 38.285 60.7939 38.7759 62.0163C39.2667 63.2387 39.9957 64.3514 40.9204 65.2895C41.8451 66.2277 42.947 66.9727 44.1622 67.4812C45.3774 67.9897 46.6815 68.2515 47.9988 68.2515C49.3161 68.2515 50.6202 67.9897 51.8354 67.4812C53.0506 66.9727 54.1525 66.2277 55.0772 65.2895C56.0019 64.3514 56.7309 63.2387 57.2218 62.0163C57.7126 60.7939 57.9556 59.4861 57.9365 58.169L57.9363 58.1545V35.9675C57.9363 34.863 58.8317 33.9675 59.9363 33.9675C61.0409 33.9675 61.9363 34.863 61.9363 35.9675V58.1262C61.961 59.9683 61.6202 61.7971 60.9337 63.5069C60.2453 65.2212 59.2229 66.7817 57.926 68.0974C56.6292 69.4132 55.0837 70.458 53.3795 71.1711C51.6753 71.8843 49.8462 72.2515 47.9988 72.2515C46.1514 72.2515 44.3224 71.8843 42.6181 71.1711C40.9139 70.458 39.3684 69.4132 38.0716 68.0974C36.7747 66.7817 35.7524 65.2212 35.0639 63.5069C34.3774 61.7971 34.0366 59.9683 34.0613 58.1261V34.424C34.0462 33.0399 34.3051 31.6663 34.8232 30.3826C35.3429 29.0949 36.1131 27.9232 37.089 26.9353C38.0649 25.9475 39.2272 25.1632 40.5085 24.6279Z" fill="#059669"/>
</svg>
